SplineFontDB: 3.0
FontName: Rollout-Bold
FullName: Rollout-Bold
FamilyName: Rollout
Weight: Bold
Copyright: This typeface is copyright Ben Weiner 1998.
Version: 001.000
ItalicAngle: 0
UnderlinePosition: -272
UnderlineWidth: 40
Ascent: 1608
Descent: 440
LayerCount: 2
Layer: 0 0 "Back"  1
Layer: 1 0 "Fore"  0
NeedsXUIDChange: 1
UniqueID: 4065015
FSType: 0
OS2Version: 0
OS2_WeightWidthSlopeOnly: 0
OS2_UseTypoMetrics: 0
CreationTime: 1209323349
ModificationTime: 1301265158
OS2TypoAscent: 0
OS2TypoAOffset: 1
OS2TypoDescent: 0
OS2TypoDOffset: 1
OS2TypoLinegap: 184
OS2WinAscent: 0
OS2WinAOffset: 1
OS2WinDescent: 0
OS2WinDOffset: 1
HheadAscent: 0
HheadAOffset: 1
HheadDescent: 0
HheadDOffset: 1
OS2Vendor: 'PfEd'
MarkAttachClasses: 1
DEI: 91125
Encoding: ISO8859-1
UnicodeInterp: none
NameList: Adobe Glyph List
DisplaySize: -96
AntiAlias: 1
FitToEm: 1
WinInfo: 234 13 6
BeginPrivate: 9
BlueValues 27 [-37 5 1039 1043 1424 1448]
OtherBlues 11 [-441 -390]
BlueScale 11 0.318620039
StdHW 5 [150]
StdVW 5 [284]
StemSnapH 9 [150 296]
StemSnapV 9 [242 284]
ForceBoldThreshold 2 .5
ForceBold 4 true
EndPrivate
Grid
-2048 1324 m 0
 4096 1324 l 0
  Named: "u/c curved top" 
-2048 1312 m 0
 4096 1312 l 0
  Named: "u/c flat top" 
-2048 1376 m 0
 4096 1376 l 0
  Named: "l/c ascender" 
-2048 984 m 0
 4096 984 l 0
  Named: "Lower case vertical stem n" 
-2048 1008 m 0
 4096 1008 l 0
  Named: "Lower case e" 
-2048 1352 m 0
 4096 1352 l 0
  Named: "l/c accent top" 
-2048 1950 m 0
 4096 1950 l 0
-2048 1212 m 0
 4096 1212 l 0
  Named: "Top of $" 
-8764 221 m 0
 16002 221 l 0
EndSplineSet
BeginChars: 309 309

StartChar: Eth
Encoding: 208 208 0
Width: 1106
VWidth: 1974
Flags: HMW
HStem: -4 125<397 639> 731 174G<35 124 35 124 397 397 397 483> 1242 144G<603 635>
VStem: 124 273<121 731 121 731 121 731 121 1379> 721 273G<240 339 339 1041>
LayerCount: 2
Fore
SplineSet
124 731 m 1
 35 731 l 1
 35 905 l 1
 124 905 l 1
 124 1387 l 1
 348 1387 301 1386 639 1386 c 1
 834 1386 994 1239 994 1041 c 2
 994 339 l 2
 994 141 837 -1 639 -4 c 1
 419 0 340 -3 124 0 c 1
 124 731 l 1
483 731 m 1
 397 731 l 1
 397 121 l 1
 609 121 l 2
 612 121 613 121 613 121 c 0
 677 121 721 161 721 229 c 2
 721 1117 l 2
 721 1186 668 1242 603 1242 c 2
 396 1239 l 1
 396 905 l 1
 483 905 l 1
 483 731 l 1
EndSplineSet
Validated: 1
EndChar

StartChar: eth
Encoding: 240 240 1
Width: 1033
VWidth: 1974
Flags: W
HStem: -3 139<413.015 605.965> 846 156<421.889 602.031>
VStem: 104 286<168.87 814.208> 621 278<153.736 825.409 953 1089.64>
LayerCount: 2
Fore
SplineSet
523 1002 m 2
 557 1002 601 971 621 953 c 1
 621 978 624 1053 621 1075 c 0
 621 1080 621 1086 621 1091 c 1
 532 1035 l 1
 458 1162 l 1
 574 1234 l 1
 553 1266 526 1307 487 1364 c 1
 685 1502 l 1
 716 1449 745 1402 774 1358 c 1
 864 1414 l 1
 937 1288 l 1
 843 1230 l 1
 875 1156 895 1070 894 949 c 1
 899 3 l 1
 678 3 l 1
 666 43 l 1
 623 23 595 -3 542 -3 c 2
 458 -3 l 2
 263 -3 104 137 104 335 c 2
 104 645 l 2
 104 840 263 1002 458 1002 c 2
 523 1002 l 2
508 136 m 0
 564 136 609 164 621 213 c 1
 621 767 l 1
 605 814 560 846 508 846 c 0
 435 846 390 791 390 722 c 2
 390 243 l 2
 390 174 443 136 508 136 c 0
EndSplineSet
Validated: 33
EndChar

StartChar: Lslash
Encoding: 256 321 2
Width: 938
VWidth: 1974
Flags: HMW
HStem: 3 174<396 785 396 785>
VStem: 123 273<176 757 757 757 1002 1375>
LayerCount: 2
Fore
SplineSet
35 865 m 1
 123 891 l 1
 123 1377 l 1
 396 1375 l 1
 396 962 l 1
 696 1051 l 1
 696 875 l 1
 396 788 l 1
 396 176 l 1
 785 176 l 1
 785 3 l 1
 123 3 l 1
 123 717 l 1
 35 691 l 1
 35 865 l 1
EndSplineSet
Validated: 1
EndChar

StartChar: lslash
Encoding: 257 322 3
Width: 513
VWidth: 1974
Flags: HMW
HStem: 3 39
VStem: 120 273<3 768 768 768 3 1044 1044 1377>
LayerCount: 2
Fore
SplineSet
483 909 m 1
 393 870 l 1
 393 3 l 1
 120 3 l 1
 120 768 l 1
 35 731 l 1
 35 905 l 1
 120 942 l 1
 120 1377 l 1
 393 1377 l 1
 393 1044 l 1
 483 1083 l 1
 483 909 l 1
EndSplineSet
Validated: 1
EndChar

StartChar: scaron
Encoding: 259 353 5
Width: 1002
VWidth: 1974
Flags: W
HStem: -16 138<413.015 605.412> 867 139<406.579 577.931> 1133 219<424 445 601 641>
VStem: 104 286<155.87 358> 109 265<660.963 836.248> 268 510 609 265<620 835.215> 627 272<144.821 341.413>
LayerCount: 2
Fore
SplineSet
627 229 m 0xf1
 627 259 629 316 607 334 c 0
 519 417 106 395 109 685 c 0
 112 890 230 1006 458 1006 c 2
 542 1006 l 2
 737 1006 880 848 880 650 c 1
 874 620 l 1
 609 620 l 1
 609 744 l 2
 609 813 557 867 492 867 c 0
 427 867 374 813 374 744 c 0xea
 374 535 896 650 899 304 c 0
 899 67 740 -16 542 -16 c 2
 458 -16 l 2
 263 -16 104 124 104 322 c 2
 107 358 l 1
 392 358 l 1
 390 229 l 2
 390 160 443 122 508 122 c 0
 573 122 627 160 627 229 c 0xf1
EndSplineSet
Refer: 233 711 S 1 0 0 1 32 44 2
Validated: 33
EndChar

StartChar: Thorn
Encoding: 222 222 8
Width: 1019
VWidth: 1974
Flags: HMW
HStem: 3 39 393 138<484 499 499 544 484 561> 1242 156G<496 544>
VStem: 120 270<3 438 608 1162 1348 1513> 631 286G<638 731 731 1040>
LayerCount: 2
Fore
SplineSet
512 532 m 0
 577 532 631 569 631 638 c 2
 631 1117 l 2
 631 1186 577 1242 512 1242 c 0
 463 1242 410 1209 392 1162 c 1
 392 608 l 1
 406 559 456 532 512 532 c 0
496 1398 m 2
 561 1398 l 2
 759 1398 917 1235 917 1040 c 2
 917 731 l 2
 917 533 759 393 561 393 c 2
 499 393 l 2
 446 393 438 418 392 438 c 1
 392 3 l 1
 120 3 l 1
 120 1513 l 1
 392 1513 l 1
 392 1348 l 1
 410 1370 462 1398 496 1398 c 2
EndSplineSet
Validated: 1
EndChar

StartChar: thorn
Encoding: 254 254 9
Width: 1019
VWidth: 1974
Flags: HMW
HStem: -3 138<452 544 484 544 484 561> 846 156G<496 544>
VStem: 120 277<213 767 213 953 953 1375> 631 286G<243 335 335 645>
LayerCount: 2
Fore
SplineSet
512 136 m 0
 577 136 631 174 631 243 c 2
 631 722 l 2
 631 791 577 846 512 846 c 0
 463 846 413 814 397 767 c 1
 397 213 l 1
 409 164 456 136 512 136 c 0
496 1002 m 2
 561 1002 l 2
 759 1002 917 840 917 645 c 2
 917 335 l 2
 917 137 759 -3 561 -3 c 2
 479 -3 l 2
 426 -3 397 23 354 43 c 1
 343 -195 l 1
 120 -195 l 1
 120 1375 l 1
 397 1375 l 1
 397 953 l 1
 413 975 462 1002 496 1002 c 2
EndSplineSet
Validated: 1
EndChar

StartChar: zcaron
Encoding: 261 382 11
Width: 996
VWidth: 1974
Flags: W
HStem: 0 195<431 894> 848 158<104 587> 1134 219<461 482 638 678>
VStem: 305 510
LayerCount: 2
Fore
SplineSet
894 1006 m 1
 894 848 l 1
 431 195 l 1
 894 195 l 1
 894 0 l 1
 104 0 l 1
 104 195 l 1
 587 848 l 1
 104 848 l 1
 104 1006 l 1
 894 1006 l 1
EndSplineSet
Refer: 233 711 N 1 0 0 1 69 45 2
Validated: 1
EndChar

StartChar: brokenbar
Encoding: 166 166 12
Width: 557
VWidth: 1974
Flags: HMW
HStem: 1007 566G<128 401 128 401>
VStem: 131 270G
LayerCount: 2
Fore
SplineSet
128 -354 m 1
 128 842 l 1
 401 842 l 1
 401 -354 l 1
 128 -354 l 1
128 1573 m 1
 401 1573 l 1
 401 1008 l 1
 128 1008 l 1
 128 1573 l 1
EndSplineSet
Validated: 1
EndChar

StartChar: minus
Encoding: 262 8722 13
Width: 1051
VWidth: 1974
Flags: HMW
HStem: 714 138G<210 890 210 890>
LayerCount: 2
Fore
SplineSet
210 852 m 1
 890 852 l 1
 890 714 l 1
 210 714 l 1
 210 852 l 1
EndSplineSet
Validated: 1
EndChar

StartChar: multiply
Encoding: 215 215 14
Width: 1051
VWidth: 1974
Flags: W
HStem: 494 577
VStem: 222 574
LayerCount: 2
Fore
SplineSet
321 1071 m 1
 510 881 l 1
 700 1071 l 1
 796 972 l 1
 607 783 l 1
 796 593 l 1
 700 494 l 1
 510 684 l 1
 321 494 l 1
 222 593 l 1
 412 783 l 1
 222 972 l 1
 321 1071 l 1
EndSplineSet
Validated: 1
EndChar

StartChar: exclam
Encoding: 33 33 16
Width: 557
VWidth: 1974
Flags: HMW
HStem: -12 286<200 412 210 412>
VStem: 172 273<358 1377 358 1377>
LayerCount: 2
Fore
SplineSet
172 1377 m 1
 445 1377 l 1
 445 358 l 1
 172 358 l 1
 172 1377 l 1
210 274 m 2
 412 274 l 2
 432 274 447 259 447 239 c 2
 447 23 l 2
 447 3 432 -12 412 -12 c 2
 210 -12 l 2
 190 -12 174 3 174 23 c 2
 174 239 l 2
 174 259 190 274 210 274 c 2
EndSplineSet
Validated: 1
EndChar

StartChar: quotedbl
Encoding: 34 34 17
Width: 836
VWidth: 1974
Flags: HMW
HStem: 1083 434
VStem: 127 273<1269 1270 1270 1485 1269 1494> 447 273G<1269 1270 1270 1485 1269 1494>
LayerCount: 2
Fore
SplineSet
127 1485 m 2
 127 1505 142 1520 162 1520 c 2
 364 1520 l 2
 384 1520 400 1505 400 1485 c 2
 400 1270 l 1
 400 1269 l 1
 317 1083 l 1
 191 1083 l 1
 127 1269 l 1
 127 1485 l 2
447 1485 m 2
 447 1505 463 1520 483 1520 c 2
 685 1520 l 2
 705 1520 720 1505 720 1485 c 2
 720 1270 l 1
 720 1269 l 1
 636 1083 l 1
 510 1083 l 1
 447 1269 l 1
 447 1485 l 2
EndSplineSet
Validated: 1
EndChar

StartChar: numbersign
Encoding: 35 35 18
Width: 1051
VWidth: 1974
Flags: HMW
HStem: 965 107 1208 107G<241 360 241 360 470 609 720 838>
VStem: 241 597<965 1072 965 1072 1208 1314 965 1314>
LayerCount: 2
Fore
SplineSet
720 965 m 1
 720 832 l 1
 609 832 l 1
 609 965 l 1
 470 965 l 1
 470 832 l 1
 360 832 l 1
 360 965 l 1
 241 965 l 1
 241 1072 l 1
 360 1072 l 1
 360 1208 l 1
 241 1208 l 1
 241 1314 l 1
 360 1314 l 1
 360 1430 l 1
 470 1430 l 1
 470 1314 l 1
 609 1314 l 1
 609 1430 l 1
 720 1430 l 1
 720 1314 l 1
 838 1314 l 1
 838 1208 l 1
 720 1208 l 1
 720 1072 l 1
 838 1072 l 1
 838 965 l 1
 720 965 l 1
609 1208 m 1
 470 1208 l 1
 470 1072 l 1
 609 1072 l 1
 609 1208 l 1
EndSplineSet
Validated: 1
EndChar

StartChar: dollar
Encoding: 36 36 19
Width: 1051
VWidth: 1974
Flags: HMW
HStem: -35 138<1483 1578 1578 1610 1483 1611 1452 1578> 965 433G<1696 1712 1454 1968 1696 1696>
VStem: 1098 273<322 448 177 448> 1696 273G<1041 1117 1117 1140>
LayerCount: 2
Fore
SplineSet
617 1207 m 1
 798 1192 943 1069 943 881 c 1
 942 835 l 1
 671 835 l 1
 671 957 l 2
 671 1026 617 1079 552 1082 c 1
 481 1082 l 2
 417 1082 366 1029 366 961 c 0
 366 939 363 908 366 887 c 0
 376 819 427 770 650 708 c 0
 974 618 963 405 963 322 c 0
 963 128 807 -28 617 -35 c 1
 617 -176 l 1
 434 -176 l 1
 434 -35 l 1
 245 -28 92 128 92 322 c 2
 92 368 l 1
 365 368 l 1
 365 251 l 2
 365 183 411 142 475 142 c 0
 506 142 534 142 572 142 c 0
 636 142 692 179 692 247 c 1
 692 248 692 286 692 323 c 1
 690 446 529 468 373 524 c 1
 229 573 89 670 89 825 c 0
 89 872 89 880 89 880 c 1
 92 1073 245 1203 434 1209 c 1
 434 1391 l 1
 617 1391 l 1
 617 1207 l 1
EndSplineSet
Validated: 33
EndChar

StartChar: percent
Encoding: 37 37 20
Width: 1051
VWidth: 1974
Flags: HMW
HStem: 79 285<722 755> 1022 320G
VStem: 227 118 678 118G
LayerCount: 2
Fore
SplineSet
925 1428 m 1
 322 -22 l 1
 109 -22 l 1
 713 1428 l 1
 925 1428 l 1
344 1076 m 2
 344 1280 l 2
 344 1314 318 1342 287 1342 c 0
 253 1342 227 1314 227 1280 c 2
 227 1076 l 2
 227 1041 253 1023 287 1023 c 0
 318 1023 344 1041 344 1076 c 2
310 1439 m 2
 409 1439 488 1357 488 1258 c 2
 488 1105 l 2
 488 1009 409 936 310 936 c 2
 269 936 l 2
 170 936 92 1015 92 1114 c 2
 92 1261 l 2
 92 1360 170 1439 269 1439 c 2
 310 1439 l 2
816 133 m 2
 816 300 l 2
 816 334 790 364 759 364 c 0
 725 364 701 334 701 300 c 2
 701 133 l 2
 701 98 725 79 759 79 c 0
 790 79 816 98 816 133 c 2
783 476 m 2
 882 476 961 395 961 296 c 2
 961 142 l 2
 961 46 882 -26 783 -26 c 2
 741 -26 l 2
 642 -26 564 53 564 152 c 2
 564 299 l 2
 564 398 642 476 741 476 c 2
 783 476 l 2
EndSplineSet
Validated: 1
EndChar

StartChar: ampersand
Encoding: 38 38 21
Width: 1051
VWidth: 1974
Flags: HMW
HStem: -16 172<534 548 442 568> 718 138G<451 503 451 503 447 503> 1228 172G
VStem: 85 273<339 517 517 576> 648 235G<339 714 339 714 339 714>
LayerCount: 2
Fore
SplineSet
973 714 m 1
 924 714 l 1
 924 339 l 2
 921 141 773 -16 578 -16 c 2
 442 -16 l 2
 246.977 -16 65 139 65 339 c 2
 65 517 l 2
 65 634 140 737 227 802 c 1
 159 870 116 962 116 1061 c 0
 116 1259 279 1399 473 1399 c 2
 529 1401 l 2
 727 1401 868 1254 868 1056 c 1
 868 1056 637 1054 629 1057 c 1
 629 1118 l 2
 629 1187 561 1230 496 1227 c 0
 431 1227 370 1187 370 1118 c 2
 370 961 l 2
 370 900 398 865 451 855 c 1
 503 855 l 1
 503 718 l 1
 447 718 l 2
 400 712 338 657 338 593 c 2
 338 265 l 2
 338 196 389.003 154.349 458 155 c 2
 564 156 l 2
 632 156 688 196 688 265 c 2
 688 714 l 1
 618 714 l 1
 618 854 l 1
 751 854 839 857 973 854 c 1
 973 714 l 1
EndSplineSet
Validated: 33
EndChar

StartChar: quotesingle
Encoding: 39 39 22
Width: 529
VWidth: 1974
Flags: HMW
HStem: 1083 434
VStem: 127 273G<1269 1270 1270 1485 1269 1494>
LayerCount: 2
Fore
SplineSet
127 1485 m 2
 127 1505 142 1520 162 1520 c 2
 364 1520 l 2
 384 1520 400 1505 400 1485 c 2
 400 1270 l 1
 400 1269 l 1
 317 1083 l 1
 191 1083 l 1
 127 1269 l 1
 127 1485 l 2
EndSplineSet
Validated: 1
EndChar

StartChar: parenleft
Encoding: 40 40 23
Width: 561
VWidth: 1974
Flags: W
HStem: -265 174<384.489 487> 1277 175<384.489 487>
VStem: 135 219<-59.2375 1244.42>
LayerCount: 2
Fore
SplineSet
137 75 m 1
 135 75 l 1
 135 1110 l 1
 137 1110 l 1
 141 1387 297 1452 487 1452 c 1
 487 1277 l 1
 422 1277 357 1237 354 1164 c 2
 354 22 l 2
 354 -47 422 -91 487 -91 c 1
 487 -265 l 1
 297 -265 141 -202 137 75 c 1
EndSplineSet
Validated: 1
EndChar

StartChar: parenright
Encoding: 41 41 24
Width: 561
VWidth: 1974
Flags: HMW
HStem: -265 174<71 104 71 166> 1278 174G
VStem: 204 217G<75 75>
LayerCount: 2
Fore
SplineSet
421 75 m 1
 417 -202 261 -265 71 -265 c 1
 71 -91 l 1
 136 -91 204 -47 204 22 c 2
 204 1164 l 2
 201 1237 136 1277 71 1277 c 1
 71 1452 l 1
 261 1452 417 1387 421 1110 c 1
 423 1110 l 1
 423 75 l 1
 421 75 l 1
EndSplineSet
Validated: 1
EndChar

StartChar: asterisk
Encoding: 42 42 25
Width: 557
VWidth: 1974
Flags: HMW
HStem: 923 430G<218 360 218 360>
VStem: 218 142<923 1034 923 1034 1243 1353>
LayerCount: 2
Fore
SplineSet
139 968 m 1
 67 1093 l 1
 165 1139 l 1
 67 1183 l 1
 139 1308 l 1
 218 1243 l 1
 218 1353 l 1
 360 1353 l 1
 360 1243 l 1
 442 1308 l 1
 512 1183 l 1
 413 1139 l 1
 512 1093 l 1
 442 968 l 1
 360 1034 l 1
 360 923 l 1
 218 923 l 1
 218 1034 l 1
 139 968 l 1
EndSplineSet
Validated: 1
EndChar

StartChar: plus
Encoding: 43 43 26
Width: 1051
VWidth: 1974
Flags: HMW
HStem: 714 138G<194 465 194 465 603 874>
VStem: 465 138<425 714 425 714 851 1140>
LayerCount: 2
Fore
SplineSet
465 425 m 1
 465 714 l 1
 194 714 l 1
 194 852 l 1
 465 852 l 1
 465 1140 l 1
 603 1140 l 1
 603 852 l 1
 874 852 l 1
 874 714 l 1
 603 714 l 1
 603 425 l 1
 465 425 l 1
EndSplineSet
Validated: 1
EndChar

StartChar: comma
Encoding: 44 44 27
Width: 529
VWidth: 1974
Flags: HMW
HStem: -162 434
VStem: 127 273G<23 26 26 239 23 250>
LayerCount: 2
Fore
SplineSet
317 -162 m 1
 172 -162 l 1
 237 -12 l 1
 162 -12 l 2
 142 -12 127 3 127 23 c 2
 127 239 l 2
 127 259 142 274 162 274 c 2
 364 274 l 2
 384 274 400 259 400 239 c 2
 400 26 l 1
 400 23 l 1
 317 -162 l 1
EndSplineSet
Validated: 1
EndChar

StartChar: hyphen
Encoding: 45 45 28
Width: 557
VWidth: 1974
Flags: HMW
HStem: 714 138G<145 469 145 469>
VStem: 145 324G<714 851 714 851>
LayerCount: 2
Fore
SplineSet
145 852 m 1
 469 852 l 1
 469 714 l 1
 145 714 l 1
 145 852 l 1
EndSplineSet
Validated: 1
EndChar

StartChar: period
Encoding: 46 46 29
Width: 529
VWidth: 1974
Flags: HMW
HStem: -12 286G<153 362 162 362>
VStem: 127 273G
LayerCount: 2
Fore
SplineSet
162 274 m 2
 362 274 l 2
 382 274 397 259 397 239 c 2
 397 23 l 2
 397 3 382 -12 362 -12 c 2
 162 -12 l 2
 142 -12 127 3 127 23 c 2
 127 239 l 2
 127 259 142 274 162 274 c 2
EndSplineSet
Validated: 1
EndChar

StartChar: slash
Encoding: 47 47 30
Width: 822
VWidth: 1974
Flags: W
LayerCount: 2
Fore
SplineSet
767 1485 m 1
 326 -105 l 1
 54 -105 l 1
 496 1485 l 1
 767 1485 l 1
EndSplineSet
Validated: 1
EndChar

StartChar: zero
Encoding: 48 48 31
Width: 1051
VWidth: 1974
Flags: HMW
HStem: -16 155<380 556 512 556 556 586> 1242 156G<480 512 512 556>
VStem: 123 273<393 988 988 1080> 672 266G<300 393 393 988>
LayerCount: 2
Fore
SplineSet
939 353 m 2
 939 155 781 -16 586 -16 c 2
 469 -16 l 2
 274 -16 113 155 113 353 c 2
 113 948 l 2
 113 1146 274 1308 469 1308 c 2
 583 1308 l 2
 781 1308 939 1146 939 948 c 2
 939 353 l 2
682 300 m 2
 682 990 l 2
 682 1059 620 1152 556 1152 c 2
 502 1152 l 2
 438 1152 376 1059 376 990 c 2
 376 300 l 2
 376 231 438 148 502 148 c 2
 556 148 l 2
 620 148 682 231 682 300 c 2
EndSplineSet
EndChar

StartChar: one
Encoding: 49 49 32
Width: 1051
VWidth: 1974
Flags: HMW
HStem: 3 39 1000 138G<244 449 244 244>
VStem: 447 273G
LayerCount: 2
Fore
SplineSet
720 1327 m 1
 720 3 l 1
 469 3 l 1
 469 960 l 5
 244 960 l 5
 244 1099 l 5
 388 1100 478 1182 499 1327 c 1
 720 1327 l 1
EndSplineSet
EndChar

StartChar: two
Encoding: 50 50 33
Width: 1051
VWidth: 1974
Flags: HMW
HStem: 3 39
VStem: 405 255G<1114 1114>
LayerCount: 2
Fore
SplineSet
830 686 m 2
 451 216 l 1
 947 216 l 1
 947 3 l 1
 150 3 l 1
 150 176 l 1
 646 790 l 2
 695 850 697 903 696.938 952 c 2
 696.926 970.665 696 1039.11 696 1058 c 0
 696 1130 641 1169 576 1169 c 2
 523 1169 l 2
 458 1169 405 1113 405 1044 c 2
 405 895 l 1
 133 895 l 1
 133 970 l 2
 133 1168 293 1325 488 1325 c 2
 585 1325 l 6
 783 1325 937 1173 937 978 c 0
 937 886 911.206 786.704 830 686 c 2
EndSplineSet
EndChar

StartChar: three
Encoding: 51 51 34
Width: 1051
VWidth: 1974
Flags: HMW
HStem: -16 172<526 549 526 583 495 549> 611 195G 1242 156G<532 549 532 532>
VStem: 141 270 666 273G
LayerCount: 2
Fore
SplineSet
549 578 m 2
 305 578 l 1
 305 776 l 1
 552 776 l 2
 617 773 670 792 670 861 c 2
 668 1047 l 2
 667.065 1133.99 614 1172 549 1172 c 2
 502 1172 l 2
 434 1172 383 1116 383 1047 c 2
 383 895 l 1
 111 895 l 1
 111 971 l 2
 111 1169 271 1328 466 1328 c 2
 583 1328 l 2
 781 1328 921 1179 921 981 c 0
 921 787 834 691 640 688 c 1
 640 678 l 1
 838 678 939 534 939 339 c 0
 939 141 781 -16 583 -16 c 2
 465 -16 l 2
 266 -16 111 141 111 339 c 2
 111 467 l 1
 383 467 l 1
 383 265 l 2
 383 196 430 156 496 156 c 2
 559 156 l 2
 624 156 668 196 668 265 c 2
 668 467 l 2
 668 536 614 581 549 578 c 2
EndSplineSet
EndChar

StartChar: four
Encoding: 52 52 35
Width: 1051
VWidth: 1974
Flags: HMW
HStem: 3 39 304 138<417 594 145 145 777 964>
VStem: 594 183G<3 304 3 304 442 812 812 812>
LayerCount: 2
Fore
SplineSet
624 462 m 1
 624 952 l 5
 317 462 l 1
 624 462 l 1
624 1327 m 1
 807 1327 l 1
 807 462 l 1
 1014 462 l 1
 1014 264 l 1
 807 264 l 1
 807 -27 l 1
 624 -27 l 1
 624 264 l 1
 45 264 l 1
 45 432 l 1
 624 1327 l 1
EndSplineSet
EndChar

StartChar: five
Encoding: 53 53 36
Width: 1051
VWidth: 1974
Flags: HMW
HStem: -16 170 718 170G<557 590> 1232 146G
VStem: 124 273<339 468 265 468> 668 273G
LayerCount: 2
Fore
SplineSet
131 595 m 1
 131 1319 l 5
 903 1319 l 5
 903 1105 l 1
 317 1105 l 1
 317 800 l 1
 388 882 488 888 534 888 c 2
 590 888 l 2
 788 888 943 728 943 533 c 2
 941 339 l 2
 941 141 784 -16 587 -16 c 2
 470 -16 l 2
 274 -16 114 141 114 339 c 2
 114 468 l 1
 387 468 l 1
 387 265 l 2
 387 196 447 156 514 156 c 2
 566 156 l 2
 636 156 680 196 680 265 c 2
 680 598 l 2
 680 667 622 716 557 716 c 2
 496 716 l 2
 466 716 436 706 408 680 c 0
 377.759 651.919 361.713 614.985 360 595 c 1
 131 595 l 1
EndSplineSet
EndChar

StartChar: six
Encoding: 54 54 37
Width: 1051
VWidth: 1974
Flags: HMW
HStem: -16 170 718 170G<590 590 590 590> 1239 159G
VStem: 124 273<339 608 840 1041 1041 1117> 668 273G
LayerCount: 2
Fore
SplineSet
397 265 m 2
 397 196 449 159 514 156 c 2
 556 156 l 2
 621 153 670 196 670 265 c 2
 670 608 l 2
 670 677 622 716 557 716 c 2
 516 716 l 2
 451 716 397 677 397 608 c 2
 397 265 l 2
564 884 m 2
 624 884 l 2
 818 884 943 728 943 533 c 2
 941 339 l 2
 941 141 785 -13 587 -16 c 2
 480 -16 l 2
 285 -19 124 141 124 339 c 2
 124 971 l 2
 124 1169 285 1328 480 1328 c 2
 586 1328 l 2
 784 1328 941 1199 941 1001 c 2
 941 965 l 1
 670 965 l 1
 670 1047 l 2
 670 1116 617 1169 552 1172 c 2
 514 1172 l 2
 449 1172 397 1116 397 1047 c 2
 397 800 l 5
 416 825 429 836 458 856 c 0
 484.162 874.043 528 884 564 884 c 2
EndSplineSet
EndChar

StartChar: seven
Encoding: 55 55 38
Width: 1051
VWidth: 1974
Flags: HMW
HStem: 3 39 1219 156G
LayerCount: 2
Fore
SplineSet
505 3 m 1
 232 3 l 1
 769 1107 l 1
 111 1107 l 5
 111 1315 l 5
 1006 1315 l 1
 1003 1157 l 1
 505 3 l 1
EndSplineSet
EndChar

StartChar: eight
Encoding: 56 56 39
Width: 1051
VWidth: 1974
Flags: HMW
HStem: -16 170 702 170G<573 575 575 604> 1228 172G
VStem: 133 273<339 517 517 575> 677 273G
LayerCount: 2
Fore
SplineSet
948 339 m 2
 948 141 793 -16 595 -16 c 2
 458 -16 l 2
 263 -20 103 141 103 339 c 2
 103 447 l 2
 103 561 158 667 245 732 c 1
 177 800 135 892 135 991 c 0
 135 1189 295 1330 490 1330 c 2
 575 1330 l 2
 770 1330 932 1181 932 986 c 0
 932 881 888 789 816 724 c 1
 897 659 948 560 948 447 c 2
 948 339 l 2
388 1048 m 2
 388 910 l 2
 388 846 426 801 483 801 c 2
 585 801 l 2
 645 801 677 845 677 910 c 2
 677 1048 l 2
 677 1117.26 620 1156.99 538 1156.99 c 0
 448 1156.99 388 1115.32 388 1048 c 2
678 265 m 2
 678 553 l 2
 678 618 634 660 573 660 c 2
 474 660 l 2
 409 657 375 622 375 553 c 2
 375 265 l 2
 375 196 409 159 474 156 c 2
 564 156 l 2
 629 156 678 196 678 265 c 2
EndSplineSet
EndChar

StartChar: nine
Encoding: 57 57 40
Width: 1051
VWidth: 1974
Flags: HMW
HStem: -16 156<383 553 516 553 553 586 516 587> 491 172<510 556> 1223 174G
VStem: 124 273<240 265 265 339 848 1041 1041 1117> 670 273G<265 339 339 540 540 540 772 1041>
LayerCount: 2
Fore
SplineSet
670 1047 m 2
 670 1116 617 1155 552 1155 c 2
 500 1155 l 2
 437 1155 387 1116 387 1047 c 2
 387 772 l 2
 387 703 434 665 500 665 c 2
 552 665 l 2
 617 665 670 703 670 772 c 2
 670 1047 l 2
532 492 m 2
 469 492 l 2
 274 492 114 653 114 848 c 2
 114 971 l 2
 114 1169 272 1326 470 1326 c 2
 577 1326 l 6
 772 1326 943 1169 943 971 c 2
 943 339 l 2
 943 141 782 -16 587 -16 c 2
 460 -16 l 2
 265 -16 104 141 104 339 c 2
 107 415 l 1
 377 415 l 1
 377 265 l 2
 377 196 430 140 496 140 c 2
 553 140 l 2
 618 140 670 196 670 265 c 2
 670 540 l 1
 627 510 579 492 532 492 c 2
EndSplineSet
EndChar

StartChar: colon
Encoding: 58 58 41
Width: 529
VWidth: 1974
Flags: HMW
HStem: -12 286<153 362 162 362> 699 286G<153 362 162 362>
VStem: 127 273G
LayerCount: 2
Fore
SplineSet
162 274 m 2
 362 274 l 2
 382 274 397 259 397 239 c 2
 397 23 l 2
 397 3 382 -12 362 -12 c 2
 162 -12 l 2
 142 -12 127 3 127 23 c 2
 127 239 l 2
 127 259 142 274 162 274 c 2
162 985 m 2
 362 985 l 2
 382 985 397 970 397 950 c 2
 397 734 l 2
 397 714 382 699 362 699 c 2
 162 699 l 2
 142 699 127 714 127 734 c 2
 127 950 l 2
 127 970 142 985 162 985 c 2
EndSplineSet
Validated: 1
EndChar

StartChar: semicolon
Encoding: 59 59 42
Width: 529
VWidth: 1974
Flags: HMW
HStem: -162 434 699 286G<153 362 162 362>
VStem: 127 273G
LayerCount: 2
Fore
SplineSet
162 985 m 2
 362 985 l 2
 382 985 397 970 397 950 c 2
 397 734 l 2
 397 714 382 699 362 699 c 2
 162 699 l 2
 142 699 127 714 127 734 c 2
 127 950 l 2
 127 970 142 985 162 985 c 2
317 -162 m 1
 172 -162 l 1
 237 -12 l 1
 162 -12 l 2
 142 -12 127 3 127 23 c 2
 127 239 l 2
 127 259 142 274 162 274 c 2
 362 274 l 2
 382 274 397 259 397 239 c 2
 397 26 l 1
 397 23 l 1
 317 -162 l 1
EndSplineSet
Validated: 1
EndChar

StartChar: less
Encoding: 60 60 43
Width: 953
VWidth: 1974
Flags: W
VStem: 104 681
LayerCount: 2
Fore
SplineSet
104 801 m 1
 512 1213 l 1
 785 1213 l 1
 375 801 l 1
 785 352 l 1
 512 352 l 1
 104 801 l 1
EndSplineSet
Validated: 1
EndChar

StartChar: equal
Encoding: 61 61 44
Width: 953
VWidth: 1974
Flags: HMW
HStem: 429 138<123 803 123 803> 714 138G<123 803 123 803>
LayerCount: 2
Fore
SplineSet
123 852 m 1
 803 852 l 1
 803 714 l 1
 123 714 l 1
 123 852 l 1
123 567 m 1
 803 567 l 1
 803 429 l 1
 123 429 l 1
 123 567 l 1
EndSplineSet
Validated: 1
EndChar

StartChar: greater
Encoding: 62 62 45
Width: 953
VWidth: 1974
Flags: W
VStem: 104 681
LayerCount: 2
Fore
SplineSet
785 801 m 1
 375 352 l 1
 104 352 l 1
 512 801 l 1
 104 1213 l 1
 375 1213 l 1
 785 801 l 1
EndSplineSet
Validated: 1
EndChar

StartChar: question
Encoding: 63 63 46
Width: 953
VWidth: 1974
Flags: HMW
HStem: -12 286<348 557 358 557> 385 364<324 457 324 595 324 457> 1242 156G<492 512 492 492>
VStem: 101 270 631 251G
LayerCount: 2
Fore
SplineSet
595 608 m 1
 595 385 l 1
 324 385 l 1
 324 749 l 1
 457 749 l 1
 514 753 l 2
 579 757 634 809 631 878 c 2
 629 1117 l 2
 629 1186 577 1246 512 1242 c 2
 492 1242 l 2
 427 1238 374 1186 374 1117 c 2
 374 965 l 1
 104 965 l 1
 101 1041 l 2
 101 1239 262 1398 457 1398 c 2
 546 1398 l 2
 741 1398 884 1239 884 1041 c 2
 884 935 l 2
 884 740 793 608 595 608 c 1
358 274 m 2
 557 274 l 2
 577 274 594 259 594 239 c 2
 594 23 l 2
 594 3 577 -12 557 -12 c 2
 358 -12 l 2
 338 -12 322 3 322 23 c 2
 322 239 l 2
 322 259 338 274 358 274 c 2
EndSplineSet
Validated: 33
EndChar

StartChar: at
Encoding: 64 64 47
Width: 2048
VWidth: 1974
Flags: HMW
HStem: -16 172<514 609 514 641 481 609> 965 433G<723 723 723 737 481 995>
VStem: 125 273<339 1041 1041 1117> 722 273G
LayerCount: 2
Back
SplineSet
561 3 m 6
 479 3 l 6
 284 3 123 160 123 358 c 6
 123 650 l 6
 123 848 284 1006 479 1006 c 6
 561 1006 l 6
 759 1006 917 844 917 649 c 6
 917 426 l 6
 917 351 843 239 734 239 c 4
 642 239 572 252 564 335 c 5
 548 304 530 281 487 281 c 4
 484 281 472 281 469 281 c 4
 408 281 340 326 340 421 c 6
 340 577 l 6
 340 661 383 703 479 703 c 4
 510 703 523 697 546 685 c 5
 552 696 l 5
 660 696 l 5
 662 506 l 6
 662 362 654 328 688 328 c 4
 726 328 717 341 720 372 c 6
 720 725 l 6
 717 876 577 850 512 850 c 4
 447 850 324 871 324 725 c 6
 324 247 l 6
 324 129 447 140 512 140 c 4
 554 140 662 133 662 202 c 5
 890 204 l 5
 890 64 690 0 561 3 c 6
447 421 m 4
 447 386 464 361 495 361 c 4
 518 361 546 403 546 438 c 6
 546 632 l 5
 526 644 513 648 499 645 c 5
 457 645 447 608 447 569 c 4
 447 566 447 455 447 421 c 4
EndSplineSet
Fore
SplineSet
1172 729 m 2
 1172 792 1095 834 1036 834 c 2
 995 834 l 2
 930 834 889 778 889 709 c 2
 889 243 l 2
 889 174 930 134 995 134 c 2
 1023 134 l 2
 1081 134 1172 196 1172 253 c 2
 1172 729 l 2
1714 -376 m 1
 1658 -376 624 -376 624 -376 c 2
 413 -376 193 -207 193 79 c 2
 193 795 l 2
 193 1072 442 1302 689 1302 c 2
 1506 1302 l 2
 1704 1302 1865 1143 1865 945 c 2
 1865 945 1866 336 1865 334 c 2
 1865 210 1845 116 1748 40 c 24
 1633 -51 1486 -44 1382 -46 c 2
 1170 -46 l 1
 1170 123 l 1
 1128 42 1050 -38 917 -38 c 0
 723 -38 606 102 606 297 c 2
 606 653 l 2
 606 851 797 990 992 990 c 0
 1072 990 1131 961 1172 907 c 1
 1172 982 l 1
 1424 982 l 1
 1424 122 l 1
 1424 122 1531 127 1560 176 c 16
 1569 191 1590 222 1590 308 c 2
 1590 1021 l 2
 1590 1090 1538 1146 1473 1146 c 2
 802 1146 l 2
 606 1146 466 1008 466 821 c 2
 466 35 l 2
 466 -132 576 -204 692 -204 c 2
 692 -204 1675 -204 1714 -204 c 1
 1714 -376 l 1
EndSplineSet
EndChar

StartChar: A
Encoding: 65 65 48
Width: 1035
VWidth: 1974
Flags: HMW
HStem: 3 39 303 138<367 594 367 627 335 594> 931 442G<461 500 461 461>
LayerCount: 2
Fore
SplineSet
652 1313 m 1
 993 3 l 1
 721 3 l 1
 656 304 l 1
 347 304 l 1
 282 3 l 1
 44 3 l 1
 382 1313 l 1
 652 1313 l 1
380 442 m 1
 622 442 l 1
 529 952 l 1
 512 1038 l 1
 484 1038 l 1
 473 952 l 1
 380 442 l 1
EndSplineSet
Validated: 1
EndChar

StartChar: B
Encoding: 66 66 49
Width: 1033
VWidth: 1974
Flags: HMW
HStem: 3 138<339 508 508 540 339 557> 696 138G<340 496 496 529 340 549 339 496> 1221 156G<340 496 340 340>
VStem: 66 274<833 1221 833 1377 833 1377> 629 285G<247 339 339 520 240 597 240 632>
LayerCount: 2
Fore
SplineSet
956 520 m 2
 956 339 l 2
 956 141 799 3 601 3 c 2
 109 3 l 1
 109 1312 l 1
 591 1312 l 1
 786 1312 929 1238 929 1040 c 2
 929 1000 l 2
 929 904 897 854 833 802 c 0
 830 799 823 793 820 790 c 1
 823 787 817 775 820 775 c 1
 823 772 849 753 852 753 c 1
 921 697 956 630 956 520 c 2
672 949 m 2
 672 1036 l 2
 672 1105 605 1151 540 1151 c 2
 384 1151 l 1
 384 833 l 1
 540 833 l 2
 605 833 672 881 672 949 c 2
672 597 m 2
 672 666 659 696 594 696 c 2
 382 696 l 1
 382 140 l 1
 552 140 l 2
 617 140 672 178 672 247 c 2
 672 597 l 2
EndSplineSet
Validated: 1
EndChar

StartChar: C
Encoding: 67 67 50
Width: 1106
VWidth: 1974
Flags: HMW
HStem: -16 172<512 607 512 639 479 607> 965 433G<721 721 721 735 479 993>
VStem: 123 273<339 1041 1041 1117> 720 273G
LayerCount: 2
Fore
SplineSet
721 889 m 1
 721 1041 l 2
 721 1110 668 1163 603 1166 c 2
 512 1166 l 2
 447 1166 396 1110 396 1041 c 2
 396 265 l 2
 396 196 447 156 512 156 c 0
 600 156 571 156 610 156 c 0
 674 156 721 197 721 265 c 2
 721 467 l 1
 993 467 l 1
 993 339 l 2
 993 141 837 -16 639 -16 c 0
 583 -16 530 -16 474 -16 c 0
 280 -16 123 144 123 339 c 2
 123 965 l 2
 123 1163 284 1322 479 1322 c 1
 636 1322 l 1
 834 1322 993 1163 993 965 c 2
 993 889 l 1
 721 889 l 1
EndSplineSet
Validated: 1
EndChar

StartChar: D
Encoding: 68 68 51
Width: 1106
VWidth: 1974
Flags: HMW
HStem: -4 125 1239 138G<396 603 396 396>
VStem: 124 273<121 121 121 1377> 721 273G<240 339 339 1041>
LayerCount: 2
Fore
SplineSet
994 339 m 2
 994 141 837 -1 639 -4 c 0
 623 -4 610 -4 594 -4 c 1
 435 -4 283 3 124 3 c 1
 124 1312 l 1
 639 1312 l 2
 834 1312 994 1174 994 976 c 2
 994 339 l 2
721 229 m 2
 721 1052 l 2
 721 1121 668 1174 603 1174 c 2
 396 1174 l 1
 397 121 l 1
 591 121 570 121 613 121 c 0
 677 121 721 161 721 229 c 2
EndSplineSet
Validated: 1
EndChar

StartChar: E
Encoding: 69 69 52
Width: 938
VWidth: 1974
Flags: HMW
HStem: 3 174<396 785 396 785> 714 138G<396 781 396 781> 1238 140G<396 785 396 396>
VStem: 123 273<176 714 851 1238>
LayerCount: 2
Fore
SplineSet
825 1173 m 1
 435 1173 l 1
 435 852 l 1
 820 852 l 1
 820 719 l 1
 435 719 l 1
 435 176 l 1
 825 176 l 1
 825 3 l 1
 162 3 l 1
 162 1312 l 1
 826 1312 l 1
 825 1173 l 1
EndSplineSet
Validated: 1
EndChar

StartChar: F
Encoding: 70 70 53
Width: 938
VWidth: 1974
Flags: HMW
HStem: 3 39 714 138G<425 811 425 811> 1238 140G<425 815 425 425>
VStem: 153 273<3 714 851 1238>
LayerCount: 2
Fore
SplineSet
815 1173 m 1
 425 1173 l 1
 425 852 l 1
 811 852 l 1
 811 719 l 1
 425 719 l 1
 425 3 l 1
 153 3 l 1
 153 1312 l 1
 816 1312 l 1
 815 1173 l 1
EndSplineSet
Validated: 1
EndChar

StartChar: G
Encoding: 71 71 54
Width: 1106
VWidth: 1974
Flags: HMW
HStem: -16 172<512 607 512 639 479 607> 711 140G 965 433G<721 735 479 993 721 721>
VStem: 123 273<339 1041 1041 1117> 721 270G<265 339 339 710 710 710 965 1041>
LayerCount: 2
Fore
SplineSet
993 339 m 2
 993 141 837 -16 639 -16 c 0
 583 -16 530 -16 474 -16 c 0
 280 -16 123 144 123 339 c 2
 123 967 l 2
 123 1165 284 1324 479 1324 c 2
 636 1324 l 2
 831 1324 993 1166 993 971 c 0
 993 929 993 956 993 891 c 1
 721 891 l 1
 721 1043 l 2
 721 1112 668 1165 603 1168 c 2
 512 1168 l 2
 447 1168 396 1112 396 1043 c 2
 396 265 l 2
 396 196 447 156 512 156 c 1
 610 156 l 1
 674 156 721 197 721 265 c 2
 721 710 l 1
 532 710 l 1
 532 852 l 1
 993 852 l 1
 993 339 l 2
EndSplineSet
Validated: 1
EndChar

StartChar: H
Encoding: 72 72 55
Width: 1079
VWidth: 1974
Flags: HMW
HStem: 3 39 714 138G<396 677 396 677> 1338 39G<124 396 396 396 677 947 947 947>
VStem: 124 273 677 273G
LayerCount: 2
Fore
SplineSet
396 852 m 1
 677 852 l 1
 677 1312 l 1
 947 1312 l 1
 947 3 l 1
 677 3 l 1
 677 719 l 1
 396 719 l 1
 396 3 l 1
 124 3 l 1
 124 1312 l 1
 396 1312 l 1
 396 852 l 1
EndSplineSet
Validated: 1
EndChar

StartChar: I
Encoding: 73 73 56
Width: 573
VWidth: 1974
Flags: HMW
HStem: 3 39
VStem: 161 273
LayerCount: 2
Fore
SplineSet
161 1312 m 1
 431 1312 l 1
 431 3 l 1
 161 3 l 1
 161 1312 l 1
EndSplineSet
Validated: 1
EndChar

StartChar: J
Encoding: 74 74 57
Width: 1106
VWidth: 1974
Flags: HMW
HStem: -16 39 1340 39G<724 994 724 724>
VStem: 397 326G
LayerCount: 2
Fore
SplineSet
123 339 m 2
 123 488 l 1
 396 488 l 1
 396 265 l 2
 396 196 449 156 514 156 c 2
 609 156 l 2
 674 156 724 198 724 265 c 2
 724 1312 l 1
 994 1312 l 1
 994 339 l 2
 994 143 835 -16 640 -16 c 2
 480 -16 l 2
 282 -16 123 141 123 339 c 2
EndSplineSet
Validated: 1
EndChar

StartChar: K
Encoding: 75 75 58
Width: 1079
VWidth: 1974
Flags: HMW
HStem: 3 39 1338 39G<124 396 396 396 622 894 894 894>
VStem: 124 273
LayerCount: 2
Fore
SplineSet
702 1312 m 1
 973 1312 l 1
 656 760 l 1
 1026 3 l 1
 735 3 l 1
 431 654 l 1
 396 589 l 1
 396 3 l 1
 124 3 l 1
 124 1312 l 1
 396 1312 l 1
 397 757 l 1
 421 806 l 9
 702 1312 l 1
EndSplineSet
Validated: 1
EndChar

StartChar: L
Encoding: 76 76 59
Width: 938
VWidth: 1974
Flags: HMW
HStem: 3 174<396 785 396 785> 1336 39G<123 396 396 396>
VStem: 123 273<176 176 176 1375>
LayerCount: 2
Fore
SplineSet
396 176 m 1
 785 176 l 1
 785 3 l 1
 123 3 l 1
 123 1312 l 1
 396 1312 l 1
 396 176 l 1
EndSplineSet
Validated: 1
EndChar

StartChar: M
Encoding: 77 77 60
Width: 1330
VWidth: 1974
Flags: HMW
HStem: -3 39 1338 39G<124 371 371 371 981 1192 1192 1192>
VStem: 124 237 937 255G<3 719 719 719>
LayerCount: 2
Fore
SplineSet
340 779 m 1
 340 0 l 1
 124 0 l 1
 124 1312 l 1
 371 1312 l 1
 670 680 l 1
 670 662 l 1
 702 662 l 1
 702 680 l 1
 960 1312 l 1
 1192 1312 l 1
 1192 0 l 1
 937 0 l 1
 937 738 l 1
 911 738 l 1
 910 719 l 1
 694 26 l 1
 692 0 l 1
 664 0 l 1
 662 26 l 1
 366 760 l 1
 364 779 l 1
 340 779 l 1
EndSplineSet
Validated: 1
EndChar

StartChar: N
Encoding: 78 78 61
Width: 1037
VWidth: 1974
Flags: HMW
HStem: 3 39 1356 39G<124 371 371 371 677 929 929 929>
VStem: 124 237 677 255G
LayerCount: 2
Fore
SplineSet
360 702 m 1
 360 3 l 1
 124 3 l 1
 124 1312 l 1
 371 1312 l 1
 648 706 l 1
 657 677 l 1
 677 677 l 1
 677 1312 l 1
 929 1312 l 1
 929 3 l 1
 677 3 l 1
 388 660 l 1
 374 702 l 1
 360 702 l 1
EndSplineSet
Validated: 1
EndChar

StartChar: O
Encoding: 79 79 62
Width: 1106
VWidth: 1974
Flags: HMW
HStem: -16 39 1357 39G<380 479 479 636>
VStem: 396 326G<265 1117>
LayerCount: 2
Fore
SplineSet
721 265 m 2
 721 1043 l 2
 721 1112 668 1165 603 1168 c 2
 512 1168 l 2
 447 1168 396 1112 396 1043 c 2
 396 265 l 2
 396 196 448 156 512 156 c 0
 600 156 590 156 610 156 c 0
 674 156 721 197 721 265 c 2
993 339 m 2
 993 141 837 -16 639 -16 c 2
 479 -16 l 2
 284 -16 123 141 123 339 c 2
 123 967 l 2
 123 1165 284 1324 479 1324 c 2
 636 1324 l 2
 834 1324 993 1165 993 967 c 2
 993 339 l 2
EndSplineSet
Validated: 1
EndChar

StartChar: P
Encoding: 80 80 63
Width: 1033
VWidth: 1974
Flags: HMW
HStem: 3 39 694 140G<382 688> 1221 156G<382 540 382 382>
VStem: 109 274 660 289G
LayerCount: 2
Fore
SplineSet
948 1000 m 2
 948 805 786 694 591 694 c 2
 382 696 l 1
 382 3 l 1
 109 3 l 1
 109 1312 l 1
 591 1312 l 2
 786 1312 948 1217 948 1019 c 2
 948 1000 l 2
662 939 m 2
 662 1033 l 2
 662 1102 605 1156 540 1156 c 2
 382 1156 l 1
 382 833 l 1
 540 833 l 2
 605 833 662 871 662 939 c 2
EndSplineSet
Validated: 1
EndChar

StartChar: Q
Encoding: 81 81 64
Width: 1106
VWidth: 1974
Flags: HMW
HStem: -312 430 1239 159G
VStem: 123 273<339 1041 1041 1117> 423 273G 720 273G
LayerCount: 2
Fore
SplineSet
721 229 m 2
 721 1043 l 2
 721 1112 668 1165 603 1168 c 2
 512 1168 l 2
 447 1168 396 1112 396 1043 c 2
 396 229 l 2
 396 160 447 121 512 121 c 0
 600 121 590 121 610 121 c 0
 674 121 721 161 721 229 c 2
425 -12 m 1
 253 14 123 161 123 339 c 2
 123 967 l 2
 123 1165 284 1324 479 1324 c 2
 636 1324 l 2
 834 1324 993 1165 993 967 c 2
 993 339 l 2
 993 161 866 16 696 -10 c 1
 696 -39 l 2
 696 -100 724 -152 766 -152 c 2
 880 -152 l 1
 880 -312 l 1
 622 -312 l 2
 554 -312 425 -256 425 -105 c 2
 425 -12 l 1
EndSplineSet
Validated: 1
EndChar

StartChar: R
Encoding: 82 82 65
Width: 1098
VWidth: 1974
Flags: HMW
HStem: 3 39 696 138G 1221 156G<382 540 382 382>
VStem: 109 274 662 286G<1000 1019 1000 1098 1000 1134>
LayerCount: 2
Fore
SplineSet
656 703 m 1
 1055 3 l 1
 747 3 l 1
 419 694 l 1
 382 694 l 1
 382 3 l 1
 109 3 l 1
 109 1312 l 1
 591 1312 l 2
 786 1312 942 1217 948 1019 c 2
 948 1000 l 2
 952 858 844 776 791 744 c 0
 752 721 716 707 656 703 c 1
662 939 m 2
 662 1033 l 2
 662 1102 605 1156 540 1156 c 2
 382 1156 l 1
 382 833 l 1
 540 833 l 2
 605 833 662 871 662 939 c 2
EndSplineSet
Validated: 33
EndChar

StartChar: S
Encoding: 83 83 66
Width: 1106
VWidth: 1974
Flags: HMW
HStem: -35 138<508 603 603 635 508 636 477 603> 965 433G<721 737 479 993 721 721>
VStem: 123 273<322 448 177 448> 721 273G<1041 1117 1117 1140>
LayerCount: 2
Fore
SplineSet
994 322 m 0
 994 124 831 -35 636 -35 c 9
 477 -35 l 17
 282 -35 123 124 123 322 c 9
 123 448 l 1
 396 448 l 1
 396 251 l 17
 396 183 442 142 506 142 c 0
 537 142 565 142 603 142 c 16
 667 142 721 179 721 247 c 0
 721 433 716 323 716 388 c 1
 713 510 560 548 404 604 c 0
 260 653 120 780 120 935 c 0
 120 982 120 913 120 990 c 0
 123 1188 284 1324 479 1324 c 9
 618 1324 l 17
 813 1320 974 1239 974 1041 c 9
 973 945 l 1
 702 945 l 1
 702 1042 l 17
 702 1111 648 1164 583 1167 c 9
 512 1167 l 17
 448 1167 396 1126 396 1058 c 0
 396 1012 396 1047 396 1024 c 0
 396 865 427 886 681 818 c 0
 833 776 994 676 994 433 c 0
 994 398 994 360 994 322 c 0
EndSplineSet
Validated: 33
EndChar

StartChar: T
Encoding: 84 84 67
Width: 985
VWidth: 1974
Flags: HMW
HStem: 3 39 1238 138G<124 356 124 865 629 865 629 629>
VStem: 356 273<3 1238 3 1238>
LayerCount: 2
Fore
SplineSet
925 1174 m 1
 629 1174 l 1
 629 3 l 1
 356 3 l 1
 356 1174 l 1
 64 1174 l 1
 64 1311 l 1
 925 1311 l 1
 925 1174 l 1
EndSplineSet
Validated: 1
EndChar

StartChar: U
Encoding: 85 85 68
Width: 1106
VWidth: 1974
Flags: HMW
HStem: -16 39 1338 39G<123 393 123 123 721 994 721 721>
VStem: 396 328G
LayerCount: 2
Fore
SplineSet
123 339 m 2
 123 1312 l 1
 393 1312 l 1
 393 265 l 2
 393 196 449 156 514 156 c 2
 609 156 l 2
 674 156 721 197 721 265 c 2
 721 1312 l 1
 994 1312 l 1
 994 339 l 2
 994 141 837 -16 639 -16 c 2
 479 -16 l 2
 284 -16 123 141 123 339 c 2
EndSplineSet
Validated: 1
EndChar

StartChar: V
Encoding: 86 86 69
Width: 1033
VWidth: 1974
Flags: HMW
HStem: 4 39 1338 39G<71 324 71 71 731 963 731 731>
LayerCount: 2
Fore
SplineSet
618 4 m 1
 409 4 l 1
 71 1312 l 1
 364 1312 l 1
 518 595 l 1
 522 555 l 1
 534 555 l 1
 538 595 l 1
 731 1312 l 1
 963 1312 l 1
 618 4 l 1
EndSplineSet
Validated: 1
EndChar

StartChar: W
Encoding: 87 87 70
Width: 1644
VWidth: 1974
Flags: HMW
HStem: 3 39 1338 39G<78 326 78 78 731 731 731 964 1359 1359 1359 1579>
VStem: 522 640G
LayerCount: 2
Fore
SplineSet
579 595 m 1
 751 1312 l 1
 985 1312 l 1
 1166 595 l 1
 1171 555 l 1
 1182 555 l 1
 1186 595 l 1
 1360 1312 l 1
 1579 1312 l 1
 1241 3 l 1
 1032 3 l 1
 834 802 l 1
 830 833 l 1
 820 833 l 1
 818 802 l 1
 629 3 l 1
 416 3 l 1
 78 1312 l 1
 366 1312 l 1
 560 595 l 1
 564 555 l 1
 575 555 l 1
 579 595 l 1
EndSplineSet
Validated: 1
EndChar

StartChar: X
Encoding: 88 88 71
Width: 1096
VWidth: 1974
Flags: HMW
HStem: 3 39 1338 39G<71 343 343 343 696 967 967 967>
LayerCount: 2
Fore
SplineSet
986 1312 m 1
 674 728 l 1
 1042 3 l 1
 751 3 l 1
 520 501 l 1
 306 3 l 1
 55 3 l 1
 404 728 l 1
 92 1312 l 1
 362 1312 l 1
 560 911 l 1
 735 1312 l 1
 986 1312 l 1
EndSplineSet
Validated: 1
EndChar

StartChar: Y
Encoding: 89 89 72
Width: 1037
VWidth: 1974
Flags: HMW
HStem: 3 39 1338 39G<36 309 309 309 731 985 985 985>
VStem: 374 273<3 645 3 645>
LayerCount: 2
Fore
SplineSet
36 1312 m 1
 309 1312 l 1
 500 742 l 1
 510 702 l 1
 529 702 l 1
 538 742 l 1
 731 1312 l 1
 985 1312 l 1
 647 515 l 1
 647 3 l 1
 374 3 l 1
 374 515 l 1
 36 1312 l 1
EndSplineSet
Validated: 1
EndChar

StartChar: Z
Encoding: 90 90 73
Width: 984
VWidth: 1974
Flags: HMW
HStem: 3 179 1238 138G<123 479 123 785>
LayerCount: 2
Fore
SplineSet
416 213 m 1
 884 213 l 1
 884 3 l 1
 92 0 l 1
 183 213 l 1
 610 1116 l 1
 183 1116 l 1
 183 1311 l 1
 894 1311 l 1
 844 1178 l 1
 416 213 l 1
EndSplineSet
Validated: 1
EndChar

StartChar: bracketleft
Encoding: 91 91 74
Width: 755
VWidth: 1974
Flags: HMW
HStem: -231 176<431 785 431 785> 1414 138G
VStem: 230 202<-56 1413 -56 1554 -56 1554>
LayerCount: 2
Fore
SplineSet
230 1554 m 1
 789 1554 l 1
 789 1413 l 1
 431 1413 l 1
 431 -56 l 1
 785 -56 l 1
 785 -231 l 1
 230 -231 l 1
 230 1554 l 1
EndSplineSet
Validated: 1
EndChar

StartChar: backslash
Encoding: 92 92 75
Width: 597
VWidth: 1974
Flags: W
VStem: 36 520
LayerCount: 2
Fore
SplineSet
36 1485 m 1
 306 1485 l 1
 556 -105 l 1
 286 -105 l 1
 36 1485 l 1
EndSplineSet
Validated: 1
EndChar

StartChar: bracketright
Encoding: 93 93 76
Width: 755
VWidth: 1974
Flags: W
HStem: -231 175<-33 318> 1413 141<-40 318>
VStem: 318 202<-56 1413>
LayerCount: 2
Fore
SplineSet
522 1554 m 1
 520 -231 l 1
 -33 -231 l 1
 -33 -56 l 1
 318 -56 l 1
 318 1413 l 1
 -40 1413 l 1
 -40 1554 l 1
 522 1554 l 1
EndSplineSet
Validated: 1
EndChar

StartChar: asciicircum
Encoding: 94 94 77
Width: 854
VWidth: 1974
Flags: HMW
HStem: 1089 219<281 322>
VStem: 185 460
LayerCount: 2
Fore
SplineSet
322 1308 m 1
 529 1308 l 1
 685 1089 l 1
 468 1089 l 1
 402 1238 l 1
 322 1089 l 1
 185 1089 l 1
 322 1308 l 1
EndSplineSet
Validated: 1
EndChar

StartChar: underscore
Encoding: 95 95 78
Width: 953
VWidth: 1974
Flags: HMW
HStem: -176 138G<123 803 123 803>
LayerCount: 2
Fore
SplineSet
123 -38 m 1
 803 -38 l 1
 803 -176 l 1
 123 -176 l 1
 123 -38 l 1
EndSplineSet
Validated: 1
EndChar

StartChar: grave
Encoding: 96 96 79
Width: 1027
VWidth: 1974
Flags: W
HStem: 982 230<454 492>
VStem: 285 348
LayerCount: 2
Fore
SplineSet
285 1212 m 1
 492 1212 l 1
 633 982 l 1
 454 982 l 1
 285 1212 l 1
EndSplineSet
Validated: 1
EndChar

StartChar: a
Encoding: 97 97 80
Width: 1046
VWidth: 1974
Flags: HMW
HStem: -12 162<360 503 462 483> 837 168G<490 549>
VStem: 141 265<616 714 714 714 714 749> 633 285G
LayerCount: 2
Fore
SplineSet
955 0 m 1
 705 0 l 1
 695 18 678 53 674 88 c 1
 640 27 595 -12 494 -12 c 0
 489 -12 482 -12 438 -12 c 0
 283 -12 118 79 118 266 c 2
 118 324 l 2
 118 375 140 428 192 473 c 0
 319 583 555 585 624 585 c 2
 631 585 l 9
 631 740 l 2
 631 809 580 863 520 863 c 0
 459 863 409 809 405 740 c 2
 404 616 l 1
 141 616 l 1
 141 650 l 2
 141 848 281 1006 479 1006 c 2
 561 1006 l 2
 756 1006 917 851 917 653 c 2
 917 358 l 2
 917 69 933 87 955 0 c 1
382 269 m 2
 382 200 424 151 503 151 c 0
 504 151 519 151 520 151 c 0
 578 151 629 206 629 274 c 2
 629 470 l 1
 561 460 511 447 503 444 c 0
 451 430 382 384 382 316 c 2
 382 269 l 2
EndSplineSet
Validated: 1
EndChar

StartChar: b
Encoding: 98 98 81
Width: 1019
VWidth: 1974
Flags: HMW
HStem: -3 138<452 544 484 544 484 561> 846 156G<496 544>
VStem: 120 277<213 767 213 953 953 1375> 631 286G<243 335 335 645>
LayerCount: 2
Fore
SplineSet
512 136 m 0
 577 136 631 174 631 243 c 2
 631 722 l 2
 631 791 577 846 512 846 c 0
 463 846 413 814 397 767 c 1
 397 213 l 1
 409 164 456 136 512 136 c 0
561 1002 m 16
 759 1002 917 840 917 645 c 2
 917 335 l 2
 917 137 759 -3 561 -3 c 2
 479 -3 l 2
 426 -3 397 23 354 43 c 1
 343 0 l 1
 120 0 l 1
 120 1375 l 1
 397 1375 l 1
 397 932 l 1
 411 951 463 1002 561 1002 c 16
EndSplineSet
Validated: 1
EndChar

StartChar: c
Encoding: 99 99 82
Width: 1002
VWidth: 1974
Flags: HMW
HStem: 3 39 447 138G<610 894 610 898 610 894> 966 39G<361 458 458 542>
VStem: 375 235<247 447 585 725>
LayerCount: 2
Fore
SplineSet
894 585 m 1
 610 585 l 1
 610 725 l 2
 610 794 557 850 492 850 c 0
 427 850 375 794 375 725 c 2
 375 234 l 2
 375 165 427 127 492 127 c 0
 557 127 610 165 610 234 c 2
 610 447 l 1
 898 447 l 1
 898 326 l 2
 898 128 740 -10 542 -10 c 2
 458 -10 l 2
 263 -10 104 146 104 344 c 2
 104 650 l 2
 104 848 263 1006 458 1006 c 2
 542 1006 l 2
 740 1006 898 848 898 650 c 2
 894 585 l 1
EndSplineSet
Validated: 1
EndChar

StartChar: d
Encoding: 100 100 83
Width: 1033
VWidth: 1974
Flags: HMW
HStem: -3 39
VStem: 390 231G<243 722 722 755>
LayerCount: 2
Fore
SplineSet
508 136 m 0
 564 136 609 164 621 213 c 1
 621 767 l 1
 605 814 560 846 508 846 c 0
 443 846 390 791 390 722 c 2
 390 243 l 2
 390 174 443 136 508 136 c 0
621 927 m 1
 621 1375 l 1
 899 1375 l 1
 899 0 l 1
 678 0 l 1
 665 61 l 1
 636 25 595 -3 542 -3 c 2
 458 -3 l 2
 263 -3 104 137 104 335 c 2
 104 645 l 2
 104 840 263 1002 458 1002 c 0
 515 1002 555 988 581 971 c 0
 604 956 616 939 621 927 c 1
EndSplineSet
Validated: 1
EndChar

StartChar: e
Encoding: 101 101 84
Width: 999
VWidth: 1974
Flags: HMW
HStem: 3 138<361 525 460 525 460 542> 506 125G 850 156G<460 525>
VStem: 104 273<358 508 630 650 650 725> 610 282G<247 650 407 650 630 650 508 725 508 759>
LayerCount: 2
Fore
SplineSet
898 407 m 1
 898 344 l 2
 898 146 740 -10 542 -10 c 2
 458 -10 l 2
 263 -10 104 146 104 344 c 2
 104 650 l 2
 104 848 263 1006 458 1006 c 2
 542 1006 l 2
 740 1006 894 848 894 650 c 2
 894 507 l 1
 375 507 l 1
 375 234 l 2
 375 165 427 127 492 127 c 0
 557 127 610 165 610 234 c 2
 610 407 l 1
 898 407 l 1
610 630 m 1
 610 725 l 2
 610 794 557 850 492 850 c 0
 427 850 375 794 375 725 c 2
 375 630 l 1
 610 630 l 1
EndSplineSet
Validated: 1
EndChar

StartChar: f
Encoding: 102 102 85
Width: 688
VWidth: 1974
Flags: HMW
HStem: 3 39 828 160G 1225 156G
VStem: 161 270 607 178G<1027 1098>
LayerCount: 2
Fore
SplineSet
434 0 m 1
 161 0 l 1
 161 826 l 1
 85 826 l 1
 85 984 l 1
 161 984 l 1
 161 1026 l 2
 161 1315 319 1381 510 1381 c 0
 693 1381 786 1286 789 1110 c 0
 790 1080 787 1074 785 1047 c 1
 605 1047 l 1
 606 1110 607 1097 607 1105 c 0
 607 1171 571 1223 508 1223 c 0
 443 1223 434 1178 434 1109 c 2
 434 984 l 1
 594 984 l 1
 594 826 l 1
 434 826 l 1
 434 0 l 1
EndSplineSet
Validated: 1
EndChar

StartChar: g
Encoding: 103 103 86
Width: 1019
VWidth: 1974
Flags: HMW
HStem: -425 39 -286 285<478 523 523 540 458 543>
VStem: 392 229G
LayerCount: 2
Fore
SplineSet
621 -183 m 2
 621 36 l 1
 603 18 557 -3 523 -3 c 2
 458 -3 l 2
 263 -3 104 161 104 356 c 2
 104 664 l 2
 104 862 263 1002 458 1002 c 2
 516 1002 l 2
 599 1002 643 961 666 939 c 1
 675 984 l 1
 896 984 l 1
 899 -64 l 2
 899.559 -258.999 741 -425 546 -425 c 2
 461 -425 l 2
 266 -425 105 -315 105 -117 c 2
 111 -64 l 1
 390 -64 l 1
 390 -179 l 2
 390 -248 445 -286 510 -286 c 0
 575 -286 621 -252 621 -183 c 2
390 757 m 2
 390 278 l 2
 390 209 443 155 508 155 c 0
 560 155 603 186 621 233 c 1
 621 788 l 1
 607 837 564 863 508 863 c 0
 443 863 390 826 390 757 c 2
EndSplineSet
Validated: 33
EndChar

StartChar: h
Encoding: 104 104 87
Width: 1035
VWidth: 1974
Flags: HMW
HStem: 3 39 850 156G<478 595> 1338 39G<120 393 393 393>
VStem: 120 273<3 725 3 935 935 1377> 627 289G<649 725 725 746 649 759>
LayerCount: 2
Fore
SplineSet
595 1006 m 0
 790 1006 915 844 915 649 c 2
 913 3 l 1
 627 3 l 1
 627 725 l 2
 627 794 575 850 510 850 c 0
 445 850 393 794 393 725 c 2
 393 3 l 1
 120 3 l 1
 120 1377 l 1
 393 1377 l 1
 393 922 l 1
 461 1012 574 1006 595 1006 c 0
EndSplineSet
Validated: 33
EndChar

StartChar: i
Encoding: 105 105 88
Width: 513
VWidth: 1974
Flags: HMW
HStem: 3 39 1067 277G<149 358 158 358>
VStem: 120 273<3 985 3 985>
LayerCount: 2
Fore
SplineSet
120 985 m 1
 393 985 l 1
 393 3 l 1
 120 3 l 1
 120 985 l 1
158 1344 m 2
 358 1344 l 2
 378 1344 393 1328 393 1308 c 2
 393 1102 l 2
 393 1082 378 1067 358 1067 c 2
 158 1067 l 2
 138 1067 123 1082 123 1102 c 2
 123 1308 l 2
 123 1328 138 1344 158 1344 c 2
EndSplineSet
Validated: 1
EndChar

StartChar: j
Encoding: 106 106 89
Width: 539
VWidth: 1974
Flags: HMW
HStem: -312 160<-37 75 75 96 -37 219 -37 75> 1067 277G<172 384 183 384>
VStem: 145 273G
LayerCount: 2
Fore
SplineSet
146 985 m 1
 417 985 l 1
 417 -105 l 2
 417 -251 292 -312 226 -312 c 0
 200 -312 172 -312 -37 -312 c 1
 -37 -152 l 1
 75 -152 l 2
 117 -152 146 -100 146 -39 c 2
 146 985 l 1
183 1344 m 2
 384 1344 l 2
 404 1344 419 1328 419 1308 c 2
 419 1102 l 2
 419 1082 404 1067 384 1067 c 2
 183 1067 l 2
 163 1067 146 1082 146 1102 c 2
 146 1308 l 2
 146 1328 163 1344 183 1344 c 2
EndSplineSet
Validated: 1
EndChar

StartChar: k
Encoding: 107 107 90
Width: 1009
VWidth: 1974
Flags: HMW
HStem: 3 39 1338 39G<120 393 120 120>
LayerCount: 2
Fore
SplineSet
393 1377 m 1
 393 569 l 1
 652 984 l 1
 923 984 l 1
 601 550 l 1
 978 3 l 1
 670 3 l 1
 469 386 l 1
 393 273 l 1
 393 3 l 1
 120 3 l 1
 120 1377 l 1
 393 1377 l 1
EndSplineSet
Validated: 1
EndChar

StartChar: l
Encoding: 108 108 91
Width: 513
VWidth: 1974
Flags: HMW
HStem: 3 39 1338 39G<120 393 393 393>
VStem: 120 273<3 1377 3 1377>
LayerCount: 2
Fore
SplineSet
120 1377 m 1
 393 1377 l 1
 393 3 l 1
 120 3 l 1
 120 1377 l 1
EndSplineSet
Validated: 1
EndChar

StartChar: m
Encoding: 109 109 92
Width: 1475
VWidth: 1974
Flags: HMW
HStem: 3 39 966 39G<525 546 546 578 947 989 989 1054>
VStem: 392 217<3 725 3 759 3 1004> 868 217G
LayerCount: 2
Fore
SplineSet
869 741 m 2
 869 3 l 1
 609 3 l 1
 609 725 l 2
 609 794 575 850 510 850 c 0
 445 850 392 794 392 725 c 2
 392 3 l 1
 120 3 l 1
 120 984 l 1
 392 984 l 1
 392 887 l 1
 417 944 512 1006 578 1006 c 0
 674 1006 748 948 804 883 c 1
 824 912 904 1006 1054 1006 c 0
 1249 1006 1355 844 1355 649 c 2
 1355 3 l 1
 1085 3 l 1
 1085 725 l 2
 1085 794 1051 850 986 850 c 0
 925 850 869 805 869 741 c 2
EndSplineSet
Validated: 1
EndChar

StartChar: n
Encoding: 110 110 93
Width: 1035
VWidth: 1974
Flags: HMW
HStem: 3 39 850 156G<530 543>
VStem: 120 270<4 725 4 900 900 1004> 627 286G<4 649 3 725 3 759>
LayerCount: 2
Fore
SplineSet
595 1006 m 0
 790 1006 913 844 913 649 c 2
 913 3 l 1
 627 4 l 1
 627 725 l 2
 627 794 575 850 510 850 c 0
 445 850 392 794 392 725 c 2
 392 4 l 1
 120 3 l 1
 120 984 l 1
 392 984 l 1
 392 887 l 1
 410 921 473 1006 595 1006 c 0
EndSplineSet
Validated: 1
EndChar

StartChar: o
Encoding: 111 111 94
Width: 999
VWidth: 1974
Flags: HMW
HStem: 3 39
VStem: 375 235<247 725>
LayerCount: 2
Fore
SplineSet
610 247 m 2
 610 725 l 2
 610 794 557 850 492 850 c 0
 427 850 375 794 375 725 c 2
 375 247 l 2
 375 178 427 140 492 140 c 0
 557 140 610 178 610 247 c 2
542 1006 m 2
 740 1006 898 844 898 649 c 2
 898 339 l 2
 898 141 740 3 542 3 c 2
 458 3 l 2
 263 3 104 160 104 358 c 2
 104 650 l 2
 104 848 263 1006 458 1006 c 2
 542 1006 l 2
EndSplineSet
Validated: 1
EndChar

StartChar: p
Encoding: 112 112 95
Width: 1019
VWidth: 1974
Flags: HMW
HStem: -376 39 962 39G<452 479 479 561>
VStem: 397 233<-376 278 12 278 244 278 278 757>
LayerCount: 2
Fore
SplineSet
512 863 m 0
 456 863 409 835 397 786 c 1
 397 220 l 1
 413 173 463 142 512 142 c 0
 577 142 631 196 631 265 c 2
 631 757 l 2
 631 826 577 863 512 863 c 0
496 -16 m 2
 462 -16 428 -9 397 -1 c 1
 397 -376 l 1
 120 -376 l 1
 120 988 l 1
 343 988 l 1
 367 926 l 1
 479 1012 561 1002 561 1002 c 0
 759 1002 917 862 917 664 c 2
 917 343 l 2
 917 148 759 -16 561 -16 c 2
 496 -16 l 2
EndSplineSet
Validated: 33
EndChar

StartChar: q
Encoding: 113 113 96
Width: 1019
VWidth: 1974
Flags: HMW
HStem: -376 39 -3 156<361 534 475 523> 863 138G<475 536>
VStem: 104 286<356 664 664 757> 621 278G<-376 12 12 12 233 786 786 786>
LayerCount: 2
Fore
SplineSet
508 863 m 0
 443 863 390 826 390 757 c 2
 390 265 l 2
 390 196 443 142 508 142 c 0
 560 142 605 173 621 220 c 1
 621 786 l 1
 609 835 564 863 508 863 c 0
523 -16 m 2
 458 -16 l 2
 263 -16 104 148 104 343 c 2
 104 664 l 2
 104 862 263 1002 458 1002 c 0
 536 1002 621 960 653 926 c 1
 678 984 l 1
 899 984 l 1
 899 -376 l 1
 621 -376 l 1
 621 12 l 1
 590 4 557 -16 523 -16 c 2
EndSplineSet
Validated: 1
EndChar

StartChar: r
Encoding: 114 114 97
Width: 818
VWidth: 1974
Flags: HMW
HStem: 3 39 863 138G<479 527>
VStem: 120 274<4 786 4 998 4 998> 578 198G<664 792>
LayerCount: 2
Fore
SplineSet
578 757 m 2
 579 826 560 863 495 863 c 0
 439 863 410 835 396 786 c 1
 396 4 l 1
 120 3 l 1
 120 988 l 1
 343 988 l 1
 354 904 l 1
 421 1010 508 1002 544 1002 c 0
 735 1002 776 954 776 691 c 0
 776 682 776 621 776 612 c 1
 575 612 l 1
 578 757 l 2
EndSplineSet
Validated: 33
EndChar

StartChar: s
Encoding: 115 115 98
Width: 1002
VWidth: 1974
Flags: HMW
HStem: -16 39 966 39G<345 458 458 542>
VStem: 374 235<638 744 620 777>
LayerCount: 2
Fore
SplineSet
627 229 m 0
 627 259 629 316 607 334 c 0
 519 417 106 395 109 685 c 0
 112 890 230 1006 458 1006 c 2
 542 1006 l 2
 737 1006 880 868 880 670 c 1
 874 640 l 1
 609 640 l 1
 609 744 l 2
 609 813 557 867 492 867 c 0
 427 867 374 813 374 744 c 0
 374 535 896 650 899 304 c 0
 899 67 740 -16 542 -16 c 2
 458 -16 l 2
 263 -16 104 124 104 322 c 2
 107 358 l 1
 392 358 l 1
 390 229 l 2
 390 160 443 122 508 122 c 0
 573 122 627 160 627 229 c 0
EndSplineSet
Validated: 33
EndChar

StartChar: t
Encoding: 116 116 99
Width: 929
VWidth: 1974
Flags: HMW
HStem: -16 138<401 592 536 565> 828 160G<40 234 40 234 506 743>
VStem: 232 273 629 166G
LayerCount: 2
Fore
SplineSet
80 980 m 1
 274 980 l 1
 274 1176 l 1
 546 1176 l 1
 546 980 l 1
 783 980 l 1
 783 828 l 1
 546 828 l 1
 546 229 l 2
 546 202 554 122 600 122 c 0
 665 122 671 178 671 247 c 2
 671 393 l 1
 844 393 l 1
 836 226 l 2
 828 69 800 -16 605 -16 c 2
 540 -16 l 2
 342 -16 274 106 274 304 c 2
 274 828 l 1
 80 828 l 1
 80 980 l 1
EndSplineSet
Validated: 1
EndChar

StartChar: u
Encoding: 117 117 100
Width: 1035
VWidth: 1974
Flags: HMW
HStem: 3 156 966 39G<120 408 408 408 643 915 915 915>
VStem: 120 286<361 1006> 643 273G<285 1006 6 1006>
LayerCount: 2
Fore
SplineSet
523 3 m 2
 442 3 l 2
 247 3 120 166 120 361 c 2
 120 1006 l 1
 408 1006 l 1
 408 285 l 2
 408 216 461 160 526 160 c 0
 591 160 643 216 643 285 c 2
 643 1006 l 1
 915 1006 l 1
 915 6 l 1
 696 6 l 1
 678 110 l 1
 647 57 565 3 523 3 c 2
EndSplineSet
Validated: 1
EndChar

StartChar: v
Encoding: 118 118 101
Width: 903
VWidth: 1974
Flags: HMW
HStem: 3 368 966 39G<40 298 298 298 595 834 834 834>
LayerCount: 2
Fore
SplineSet
40 1006 m 1
 298 1006 l 1
 443 387 l 1
 443 368 l 1
 470 368 l 1
 470 387 l 1
 595 1006 l 1
 834 1006 l 1
 591 3 l 1
 324 3 l 1
 40 1006 l 1
EndSplineSet
Validated: 1
EndChar

StartChar: w
Encoding: 119 119 102
Width: 1406
VWidth: 1974
Flags: HMW
HStem: 3 39 966 39G<48 301 48 48 594 811 594 594 1062 1062 1062 1289>
LayerCount: 2
Fore
SplineSet
915 410 m 1
 915 356 l 1
 943 356 l 1
 1062 1006 l 1
 1289 1006 l 1
 1023 3 l 1
 781 3 l 1
 674 442 l 1
 568 3 l 1
 332 3 l 1
 48 1006 l 1
 301 1006 l 1
 449 356 l 1
 474 356 l 1
 474 403 l 1
 594 1006 l 1
 811 1006 l 1
 915 410 l 1
EndSplineSet
Validated: 1
EndChar

StartChar: x
Encoding: 120 120 103
Width: 897
VWidth: 1974
Flags: HMW
HStem: 0 39 966 39G<55 317 317 317 595 830 830 830>
LayerCount: 2
Fore
SplineSet
295 0 m 1
 58 0 l 1
 310 491 l 1
 313 506 l 1
 55 1006 l 1
 317 1006 l 1
 449 763 l 1
 454 731 l 1
 462 731 l 1
 466 763 l 1
 595 1006 l 1
 830 1006 l 1
 575 543 l 1
 858 0 l 1
 553 0 l 1
 439 250 l 1
 434 281 l 1
 425 281 l 1
 419 251 l 1
 295 0 l 1
EndSplineSet
Validated: 1
EndChar

StartChar: y
Encoding: 121 121 104
Width: 947
VWidth: 1974
Flags: HMW
HStem: -407 237 966 39G<40 328 328 328 561 834 834 834>
LayerCount: 2
Fore
SplineSet
41 966 m 1
 338 966 l 1
 492 273 l 1
 492 254 l 1
 503 254 l 1
 503 273 l 1
 664 966 l 1
 914 966 l 1
 627 3 l 2
 583.884 -141.672 568 -225 544 -290 c 0
 523 -342 499 -362 457 -380 c 0
 406 -402 356 -408 306 -408 c 0
 260 -408 206 -404 132 -402 c 1
 132 -172 l 1
 264 -172 281 -172 297 -172 c 0
 320 -172 346 -171 362 -151 c 0
 373 -137 377 -126 377 -112 c 0
 377 -102 375 -89 371 -72 c 0
 353 3 l 1
 41 966 l 1
EndSplineSet
Validated: 1
EndChar

StartChar: z
Encoding: 122 122 105
Width: 996
VWidth: 1974
Flags: HMW
HStem: 0 39 195 653G<104 587 431 431 431 587 104 894> 966 39G<104 894 104 104>
LayerCount: 2
Fore
SplineSet
894 1006 m 1
 894 848 l 1
 431 195 l 1
 894 195 l 1
 894 0 l 1
 104 0 l 1
 104 195 l 1
 587 848 l 1
 104 848 l 1
 104 1006 l 1
 894 1006 l 1
EndSplineSet
Validated: 1
EndChar

StartChar: braceleft
Encoding: 123 123 106
Width: 561
VWidth: 1974
Flags: HMW
HStem: 1278 174G
VStem: 75 217<707 748 707 764 707 764>
LayerCount: 2
Fore
SplineSet
146 1110 m 1
 149 1110 l 1
 155 1387 309 1452 499 1452 c 1
 499 1277 l 1
 434 1277 362 1237 366 1164 c 0
 374 996 374 782 293 748 c 1
 293 707 l 1
 388 635 369 256 366 92 c 0
 370 23 394 -28 499 -20 c 1
 499 -176 l 1
 305 -203 155 -167 149 110 c 0
 146 232 185 609 75 688 c 1
 75 764 l 1
 158 825 150 934 146 1110 c 1
EndSplineSet
Validated: 33
EndChar

StartChar: bar
Encoding: 124 124 107
Width: 573
VWidth: 1974
Flags: HMW
VStem: 161 273
LayerCount: 2
Fore
SplineSet
161 1573 m 1
 431 1573 l 1
 431 -354 l 1
 161 -354 l 1
 161 1573 l 1
EndSplineSet
Validated: 1
EndChar

StartChar: braceright
Encoding: 125 125 108
Width: 561
VWidth: 1974
Flags: W
HStem: -176 156<63 175.445> 1277 175<63 165.617>
VStem: 198 218<-2.8714 645.318 789.162 1244.42> 269 218<631.252 798.66>
LayerCount: 2
Fore
SplineSet
416 1110 m 0xe0
 412 934 406 825 487 764 c 1
 487 688 l 1xd0
 377 609 419 232 416 110 c 0
 408 -167 258 -203 63 -176 c 1
 63 -20 l 1
 170 -28 194 23 198 92 c 0xe0
 194 256 177 635 269 707 c 1
 269 748 l 1xd0
 190 782 190 996 198 1164 c 0
 201 1237 128 1277 63 1277 c 1
 63 1452 l 1
 253 1452 410 1387 416 1110 c 0xe0
EndSplineSet
Validated: 33
EndChar

StartChar: asciitilde
Encoding: 126 126 109
Width: 953
VWidth: 1974
Flags: HMW
HStem: 692 200G<378 378>
VStem: 214 585G<642 837 837 837>
LayerCount: 2
Fore
SplineSet
214 837 m 1
 240 851 271 889 380 892 c 0
 520 895 561 784 644 784 c 0
 693 784 750 812 799 842 c 1
 799 642 l 1
 760 619 730 585 639 585 c 0
 513 585 466 692 378 692 c 0
 291 692 286 680 214 638 c 1
 214 837 l 1
EndSplineSet
Validated: 33
EndChar

StartChar: ntilde
Encoding: 241 241 132
Width: 1035
VWidth: 1974
Flags: W
HStem: 3 39 850 156<562 575> 1030 198<708.069 933.536> 1136 200<389.719 640.006>
VStem: 152 270<4 725 4 900 900 1004> 659 286<4 649 3 725 3 759>
LayerCount: 2
Fore
SplineSet
374 1282 m 1xdc
 400 1296 431 1333 540 1336 c 0xdc
 680 1339 721 1228 804 1228 c 0
 853 1228 910 1257 959 1287 c 1
 959 1087 l 1
 920 1064 890 1030 799 1030 c 0xec
 673 1030 626 1136 538 1136 c 0
 451 1136 446 1125 374 1083 c 1
 374 1282 l 1xdc
EndSplineSet
Refer: 93 110 N 1 0 0 1 32 0 2
Validated: 33
EndChar

StartChar: odieresis
Encoding: 246 246 136
Width: 999
VWidth: 1974
Flags: W
HStem: 3 39 1072 270<378 560 751 933>
VStem: 378 182<1072 1342> 407 235<247 725> 751 182<1072 1342>
LayerCount: 2
Fore
SplineSet
413 1342 m 2xe8
 524 1342 l 2
 544 1342 560 1326 560 1306 c 2
 560 1109 l 2
 560 1089 544 1072 524 1072 c 2
 413 1072 l 2
 393 1072 378 1089 378 1109 c 2
 378 1306 l 2
 378 1326 393 1342 413 1342 c 2xe8
787 1342 m 2
 898 1342 l 2
 918 1342 933 1326 933 1306 c 2
 933 1109 l 2
 933 1089 918 1072 898 1072 c 2
 787 1072 l 2
 767 1072 751 1089 751 1109 c 2
 751 1306 l 2
 751 1326 767 1342 787 1342 c 2
EndSplineSet
Refer: 94 111 S 1 0 0 1 32 0 2
Validated: 1
EndChar

StartChar: dagger
Encoding: 263 8224 142
Width: 508
VWidth: 1974
Flags: HMW
HStem: 1269 73G
VStem: 124 247<1270 1342 1270 1342>
LayerCount: 2
Fore
SplineSet
124 1342 m 1
 206 1342 l 1
 206 1448 l 1
 286 1448 l 1
 286 1342 l 1
 371 1342 l 1
 371 1270 l 1
 286 1270 l 1
 286 885 l 1
 206 885 l 1
 206 1270 l 1
 124 1270 l 1
 124 1342 l 1
EndSplineSet
Validated: 1
EndChar

StartChar: degree
Encoding: 176 176 143
Width: 953
VWidth: 1974
Flags: HMW
HStem: 862 107<397 466 397 497> 1216 99G<397 466>
VStem: 210 99<1058 1126 1058 1150> 556 107G<1058 1126>
LayerCount: 2
Fore
SplineSet
662 1089 m 0
 662 964 560 862 435 862 c 0
 310 862 210 964 210 1089 c 0
 210 1214 310 1314 435 1314 c 0
 560 1314 662 1214 662 1089 c 0
556 1093 m 0
 556 1161 500 1216 431 1216 c 0
 363 1216 309 1161 309 1093 c 0
 309 1024 363 968 431 968 c 0
 500 968 556 1024 556 1093 c 0
EndSplineSet
Validated: 1
EndChar

StartChar: cent
Encoding: 162 162 144
Width: 1051
VWidth: 1974
Flags: HMW
HStem: 0 447<591 928> 546 460G<591 921>
VStem: 131 244<356 650 650 725> 445 146<-174 0 -174 4 -174 4 159 824 1006 1310> 664 257G<244 546 447 546 546 725 546 746>
LayerCount: 2
Fore
SplineSet
591 824 m 1
 622 802 664 767 664 725 c 2
 664 547 l 1
 921 546 l 1
 925 650 l 2
 925 840 778 994 591 1006 c 1
 591 1310 l 1
 445 1310 l 1
 445 998 l 1
 269 976 131 832 131 650 c 2
 131 356 l 2
 131 174 269 26 445 4 c 1
 445 -284 l 1
 591 -284 l 1
 591 0 l 1
 777 12 925 151 925 338 c 2
 928 447 l 1
 664 447 l 1
 664 244 l 2
 664 202 622 177 591 159 c 1
 445 159 l 1
 415 175 375 205 375 244 c 2
 375 725 l 2
 375 764 415 802 445 824 c 1
 591 824 l 1
EndSplineSet
Validated: 9
EndChar

StartChar: sterling
Encoding: 163 163 145
Width: 1051
VWidth: 1974
Flags: HMW
HStem: 3 174<111 146 417 421 111 146 421 878> 711 142G<105 200 105 200 470 825> 965 433G<656 705 538 928 656 656>
VStem: 200 273 655 273G
LayerCount: 2
Fore
SplineSet
76 178 m 1
 204 178 l 1
 204 177 204 591 204 591 c 1
 85 591 l 1
 85 744 l 1
 204 744 l 1
 204 1025 l 2
 204 1208 352 1328 538 1328 c 2
 607 1328 l 2
 805 1328 931 1179 928 981 c 2
 928 955 l 1
 676 955 l 5
 676 1047 l 6
 676 1116 660 1172 591 1172 c 2
 553 1172 l 2
 480 1172 448 1116 448 1047 c 2
 448 744 l 1
 745 744 l 1
 745 591 l 1
 448 591 l 1
 448 591 449 179 448 178 c 1
 928 178 l 1
 928 3 l 1
 76 3 l 1
 76 178 l 1
EndSplineSet
EndChar

StartChar: section
Encoding: 167 167 146
Width: 1002
VWidth: 1974
Flags: HMW
HStem: -22 299 1041 110G<469 521>
VStem: 184 229<170 176 148 250> 590 216G<867 942 942 946 867 970>
LayerCount: 2
Fore
SplineSet
742 395 m 1
 788 361 820 312 820 235 c 0
 820 45 692 -22 536 -22 c 2
 469 -22 l 2
 310 -22 184 94 184 250 c 2
 188 278 l 1
 416 278 l 1
 413 176 l 2
 413 120 456 88 508 88 c 0
 560 88 603 120 603 176 c 0
 603 199 605 245 587 259 c 0
 482 354 188 350 191 555 c 0
 191 650 222 716 283 755 c 1
 227 789 188 836 191 911 c 0
 191 1075 287 1152 469 1152 c 2
 534 1152 l 2
 693 1152 804 1026 804 867 c 1
 800 844 l 1
 590 844 l 1
 590 942 l 2
 590 998 548 1041 495 1041 c 0
 443 1041 401 998 401 942 c 0
 401 774 820 867 820 590 c 0
 820 498 791 434 742 395 c 1
603 532 m 0
 603 555 605 601 587 615 c 0
 557 642 511 662 462 680 c 1
 427 666 401 628 401 586 c 0
 401 513 481 490 572 464 c 1
 590 478 603 501 603 532 c 0
EndSplineSet
Validated: 33
EndChar

StartChar: bullet
Encoding: 264 8226 147
Width: 775
VWidth: 1974
Flags: HMW
HStem: 385 506G
VStem: 166 441<525 749 487 788>
LayerCount: 2
Fore
SplineSet
309 892 m 2
 465 892 l 2
 544 892 607 828 607 749 c 2
 607 525 l 2
 607 448 544 384 465 384 c 2
 309 384 l 2
 230 384 166 448 166 525 c 2
 166 749 l 2
 166 828 230 892 309 892 c 2
EndSplineSet
Validated: 1
EndChar

StartChar: paragraph
Encoding: 182 182 148
Width: 1094
VWidth: 1974
Flags: HMW
HStem: 146 121<417 479 479 495 417 639> 714 69<491 569 491 569 569 586 491 594> 976 79G<491 569 354 491> 1254 122G
VStem: 123 140<482 551 551 972> 354 136<474 714 474 783 783 976> 631 142G<866 875 866 915 866 932> 852 140G<551 972 972 1041>
LayerCount: 2
Fore
SplineSet
491 714 m 1
 491 474 l 1
 354 472 l 1
 354 1056 l 1
 491 1056 l 1
 595 1056 l 2
 691 1056 770 974 773 875 c 2
 773 866 l 2
 776 791 703 714 594 714 c 2
 491 714 l 1
631 836 m 2
 631 915 l 2
 631 949 600 976 569 976 c 2
 491 976 l 1
 491 783 l 1
 569 783 l 2
 600 783 631 801 631 836 c 2
993 482 m 2
 993 284 837 146 639 146 c 2
 479 146 l 2
 284 146 123 284 123 482 c 2
 123 1041 l 2
 123 1239 284 1377 479 1377 c 2
 636 1377 l 2
 834 1377 993 1239 993 1041 c 2
 993 482 l 2
852 551 m 2
 852 972 l 2
 852 1128 780 1257 621 1257 c 2
 495 1257 l 2
 339 1257 263 1128 263 972 c 2
 263 551 l 2
 263 395 339 266 495 266 c 2
 622 269 l 2
 781 269 852 395 852 551 c 2
EndSplineSet
Validated: 33
EndChar

StartChar: germandbls
Encoding: 223 223 149
Width: 1360
VWidth: 1974
Flags: HMW
HStem: -16 138<717 896 832 896 832 898> 1225 156G
VStem: 161 273<3 1026> 458 286<224 229 195 322> 967 269G<650 731 650 744 650 777>
LayerCount: 2
Fore
SplineSet
982 229 m 0
 982 259 985 316 963 334 c 0
 834 452 465 446 465 703 c 0
 468 893 571 992 765 1004 c 1
 766 1098 l 2
 769 1167 663 1223 598 1223 c 0
 533 1223 431 1178 431 1109 c 2
 434 3 l 1
 161 3 l 1
 161 1026 l 2
 161 1315 408 1381 599 1381 c 0
 793 1381 1010 1274 1002 1079 c 2
 998 992 l 1
 1140 949 1236 812 1236 650 c 2
 1232 620 l 1
 967 620 l 1
 967 744 l 2
 967 813 913 867 848 867 c 0
 783 867 730 813 730 744 c 0
 730 535 1252 650 1255 304 c 0
 1255 67 1096 -16 898 -16 c 2
 815 -16 l 2
 620 -16 458 124 458 322 c 2
 462 358 l 1
 747 358 l 1
 746 229 l 2
 746 160 799 122 864 122 c 0
 929 122 982 160 982 229 c 0
EndSplineSet
Validated: 33
EndChar

StartChar: registered
Encoding: 174 174 150
Width: 1094
VWidth: 1974
Flags: HMW
HStem: 146 121<417 479 479 495 417 639> 714 69<491 536 491 569> 976 79G<491 569 354 491> 1254 122G
VStem: 123 140<482 551 551 972> 354 136<474 714 474 783 783 976> 631 142G<866 875 866 915 866 932> 852 140G<551 972 972 1041>
LayerCount: 2
Fore
SplineSet
660 722 m 1
 783 472 l 1
 636 472 l 1
 536 714 l 1
 491 714 l 1
 491 474 l 1
 354 472 l 1
 354 1056 l 1
 491 1056 l 1
 595 1056 l 2
 691 1056 770 974 773 875 c 2
 773 866 l 2
 776 791 725 742 660 722 c 1
631 836 m 2
 631 915 l 2
 631 949 600 976 569 976 c 2
 491 976 l 1
 491 783 l 1
 569 783 l 2
 600 783 631 801 631 836 c 2
993 482 m 2
 993 284 837 146 639 146 c 2
 479 146 l 2
 284 146 123 284 123 482 c 2
 123 1041 l 2
 123 1239 284 1377 479 1377 c 2
 636 1377 l 2
 834 1377 993 1239 993 1041 c 2
 993 482 l 2
852 551 m 2
 852 972 l 2
 852 1128 780 1257 621 1257 c 2
 495 1257 l 2
 339 1257 263 1128 263 972 c 2
 263 551 l 2
 263 395 339 266 495 266 c 2
 622 269 l 2
 781 269 852 395 852 551 c 2
EndSplineSet
Validated: 33
EndChar

StartChar: copyright
Encoding: 169 169 151
Width: 1094
VWidth: 1974
Flags: HMW
HStem: 146 121<417 479 479 495 417 639> 480 84<536 583 583 599 518 583> 965 79G<582 598> 1254 122G
VStem: 123 140<482 551 551 972> 340 136<658 866 866 903> 639 136G 852 140G<551 972 972 1041>
LayerCount: 2
Fore
SplineSet
993 482 m 2
 993 284 837 146 639 146 c 2
 479 146 l 2
 284 146 123 284 123 482 c 2
 123 1041 l 2
 123 1239 284 1377 479 1377 c 2
 636 1377 l 2
 834 1377 993 1239 993 1041 c 2
 993 482 l 2
852 551 m 2
 852 972 l 2
 852 1128 780 1257 621 1257 c 2
 495 1257 l 2
 339 1257 263 1128 263 972 c 2
 263 551 l 2
 263 395 339 266 495 266 c 2
 622 269 l 2
 781 269 852 395 852 551 c 2
776 658 m 2
 776 559 695 480 599 480 c 2
 518 480 l 2
 419 477 340 559 340 658 c 2
 340 866 l 2
 340 965 419 1044 518 1044 c 2
 598 1044 l 2
 697 1044 776 965 776 866 c 2
 776 828 l 1
 640 828 l 1
 640 904 l 2
 640 939 613 965 582 965 c 2
 536 966 l 2
 502 966 477 939 477 904 c 2
 477 619 l 2
 477 585 502 569 536 566 c 2
 583 566 l 2
 614 566 640 585 640 619 c 2
 640 722 l 1
 776 722 l 1
 776 658 l 2
EndSplineSet
Validated: 33
EndChar

StartChar: trademark
Encoding: 265 8482 152
Width: 985
VWidth: 1974
Flags: HMW
HStem: 1000 343<293 421 293 421 421 461 461 523 421 526 421 594 421 598 421 664 666 728 421 728>
VStem: 293 68 462 64G 664 64G<1000 1179 1179 1179>
LayerCount: 2
Fore
SplineSet
421 1308 m 1
 362 1308 l 1
 362 1000 l 1
 293 1000 l 1
 293 1308 l 1
 236 1308 l 1
 236 1342 l 1
 421 1344 l 1
 421 1308 l 1
526 1179 m 1
 526 1000 l 1
 461 1000 l 1
 461 1344 l 1
 523 1344 l 1
 594 1170 l 1
 594 1164 l 1
 598 1164 l 1
 598 1170 l 1
 666 1344 l 1
 728 1344 l 1
 728 1000 l 1
 664 1000 l 1
 664 1179 l 1
 662 1179 l 1
 662 1174 l 1
 599 1010 l 1
 598 1000 l 1
 594 1000 l 1
 591 1010 l 1
 526 1175 l 1
 526 1179 l 1
 526 1179 l 1
EndSplineSet
Validated: 5
EndChar

StartChar: acute
Encoding: 180 180 153
Width: 1027
VWidth: 1974
Flags: W
HStem: 984 228<431 518>
VStem: 331 346
LayerCount: 2
Fore
SplineSet
677 1212 m 1
 518 984 l 1
 331 984 l 1
 431 1212 l 1
 677 1212 l 1
EndSplineSet
Validated: 1
EndChar

StartChar: dieresis
Encoding: 168 168 154
Width: 953
VWidth: 1974
Flags: HMW
HStem: 1072 269G<226 347 236 347 236 609 609 720>
VStem: 200 183 573 183G
LayerCount: 2
Fore
SplineSet
236 1342 m 2
 347 1342 l 2
 367 1342 382 1326 382 1306 c 2
 382 1109 l 2
 382 1089 367 1072 347 1072 c 2
 236 1072 l 2
 216 1072 200 1089 200 1109 c 2
 200 1306 l 2
 200 1326 216 1342 236 1342 c 2
609 1342 m 2
 720 1342 l 2
 740 1342 755 1326 755 1306 c 2
 755 1109 l 2
 755 1089 740 1072 720 1072 c 2
 609 1072 l 2
 589 1072 573 1089 573 1109 c 2
 573 1306 l 2
 573 1326 589 1342 609 1342 c 2
EndSplineSet
Validated: 1
EndChar

StartChar: notequal
Encoding: 266 8800 155
Width: 1051
VWidth: 1974
Flags: HMW
HStem: 429 138<123 332 123 380 123 470 519 803> 714 138G<123 431 123 479 123 569 617 803>
LayerCount: 2
Fore
SplineSet
215 87 m 1
 332 429 l 1
 123 429 l 1
 123 567 l 1
 380 567 l 1
 431 714 l 1
 123 714 l 1
 123 852 l 1
 479 852 l 1
 572 1122 l 1
 709 1122 l 1
 617 852 l 1
 803 852 l 1
 803 714 l 1
 569 714 l 1
 520 567 l 1
 803 567 l 1
 803 429 l 1
 470 429 l 1
 354 87 l 1
 215 87 l 1
EndSplineSet
Validated: 1
EndChar

StartChar: AE
Encoding: 198 198 156
Width: 1353
VWidth: 1974
Flags: HMW
HStem: 3 174<396 785 396 785> 714 138G<396 781 396 781> 1238 140G<396 785 396 396>
VStem: 123 273<176 714 851 1238>
LayerCount: 2
Fore
SplineSet
1235 1238 m 1
 845 1238 l 1
 845 852 l 1
 1230 852 l 1
 1230 719 l 1
 845 719 l 1
 845 176 l 1
 1235 176 l 1
 1235 3 l 1
 833 3 l 1
 721 3 l 1
 622 3 l 1
 622 304 l 1
 377 304 l 1
 282 3 l 1
 44 3 l 1
 482 1375 l 1
 622 1375 l 1
 752 1375 l 1
 1236 1375 l 1
 1235 1238 l 1
622 1018 m 1
 594 1018 l 1
 573 932 l 1
 410 442 l 1
 622 442 l 1
 622 1018 l 1
EndSplineSet
Validated: 1
EndChar

StartChar: Oslash
Encoding: 216 216 157
Width: 1106
VWidth: 1974
Flags: W
HStem: -16 39 -8 21G<192 427.271> 1357 39<412 511 511 668>
VStem: 428 326<265 1117>
LayerCount: 2
Fore
SplineSet
192 -8 m 25x70
 1043 1392 l 25
 1205 1392 l 25
 416 -8 l 25
 192 -8 l 25x70
EndSplineSet
Refer: 62 79 N 1 0 0 1 32 0 2
Validated: 5
EndChar

StartChar: infinity
Encoding: 267 8734 158
Width: 1051
VWidth: 1974
Flags: HMW
HStem: 941 296<544 544>
VStem: 146 99<1058 1126 1058 1150> 833 107G<1058 1126>
LayerCount: 2
Fore
SplineSet
488 1067 m 1
 488 1075 492 1081 492 1089 c 0
 492 1097 488 1106 491 1114 c 1
 479 1171 428 1216 367 1216 c 0
 299 1216 245 1161 245 1093 c 0
 245 1024 299 968 367 968 c 0
 427 968 476 1011 488 1067 c 1
939 1089 m 0
 939 964 838 862 713 862 c 0
 645 862 586 894 544 941 c 1
 502 894 440 862 371 862 c 0
 246 862 146 964 146 1089 c 0
 146 1214 246 1314 371 1314 c 0
 440 1314 502 1285 544 1238 c 1
 586 1285 645 1314 713 1314 c 0
 838 1314 939 1214 939 1089 c 0
833 1093 m 0
 833 1161 778 1216 709 1216 c 0
 656 1216 611 1179 595 1132 c 1
 598 1118 590 1103 590 1089 c 0
 590 1075 598 1063 595 1049 c 1
 613 1002 656 968 709 968 c 0
 778 968 833 1024 833 1093 c 0
EndSplineSet
Validated: 1
EndChar

StartChar: plusminus
Encoding: 177 177 159
Width: 1051
VWidth: 1974
Flags: HMW
HStem: 179 138<234 913 234 913>
LayerCount: 2
Fore
SplineSet
194 318 m 1
 873 318 l 1
 873 179 l 1
 194 179 l 1
 194 318 l 1
455 425 m 1
 455 714 l 1
 185 714 l 1
 185 852 l 1
 455 852 l 1
 455 1140 l 1
 593 1140 l 1
 593 852 l 1
 865 852 l 1
 865 714 l 1
 593 714 l 1
 593 425 l 1
 455 425 l 1
EndSplineSet
Validated: 1
EndChar

StartChar: lessequal
Encoding: 268 8804 160
Width: 1051
VWidth: 1974
Flags: HMW
HStem: 179 138<218 898 218 898>
LayerCount: 2
Fore
SplineSet
218 318 m 1
 898 318 l 1
 898 179 l 1
 218 179 l 1
 218 318 l 1
198 801 m 1
 607 1213 l 1
 880 1213 l 1
 470 801 l 1
 880 352 l 1
 607 352 l 1
 198 801 l 1
EndSplineSet
Validated: 1
EndChar

StartChar: greaterequal
Encoding: 269 8805 161
Width: 1051
VWidth: 1974
Flags: HMW
HStem: 179 138<202 882 202 882>
LayerCount: 2
Fore
SplineSet
202 318 m 1
 882 318 l 1
 882 179 l 1
 202 179 l 1
 202 318 l 1
864 801 m 1
 454 352 l 1
 183 352 l 1
 591 801 l 1
 183 1213 l 1
 454 1213 l 1
 864 801 l 1
EndSplineSet
Validated: 1
EndChar

StartChar: yen
Encoding: 165 165 162
Width: 1051
VWidth: 1974
Flags: HMW
HStem: 3 39 178 168<208 375 208 375 647 829> 426 168<208 375 208 375 648 829> 1338 39G<36 309 309 309 713 985 985 985>
VStem: 374 273<3 178>
LayerCount: 2
Fore
SplineSet
829 178 m 1
 617 178 l 1
 617 3 l 1
 394 3 l 1
 395 178 l 1
 208 178 l 1
 208 346 l 1
 395 346 l 1
 395 426 l 1
 208 426 l 1
 208 595 l 1
 395 595 l 1
 395 615 l 1
 36 1214 l 1
 269 1214 l 1
 500 741 l 1
 504 701 l 1
 526 701 l 1
 530 741 l 1
 763 1214 l 1
 985 1214 l 1
 618 615 l 1
 618 595 l 1
 829 595 l 1
 829 426 l 1
 617 426 l 1
 617 346 l 1
 829 346 l 1
 829 178 l 1
EndSplineSet
Validated: 1
EndChar

StartChar: mu
Encoding: 270 956 163
Width: 1035
VWidth: 1974
Flags: HMW
HStem: -381 39 3 156 966 39G<120 409 409 409 643 913 913 913>
VStem: 120 286<402 402 402 1006> 643 270G<285 1006>
LayerCount: 2
Fore
SplineSet
409 -381 m 1
 120 -381 l 1
 117 82 120 543 120 1006 c 1
 409 1006 l 1
 408 402 l 1
 409 402 l 1
 409 265 l 2
 417 205 466 160 526 160 c 0
 591 160 643 216 643 285 c 2
 643 1006 l 1
 913 1006 l 1
 913 114 l 2
 913 13 950 -99 993 -172 c 1
 773 -172 l 1
 712 -103 682 14 678 110 c 1
 647 57 565 3 523 3 c 2
 477 3 l 2
 467 3 419 11 409 57 c 1
 409 -381 l 1
EndSplineSet
Validated: 33
EndChar

StartChar: summation
Encoding: 272 8721 165
Width: 1051
VWidth: 1974
Flags: HMW
HStem: 3 174<443 833 443 833> 1238 140G<443 837 443 443>
VStem: 529 270G
LayerCount: 2
Fore
SplineSet
461 198 m 1
 833 226 l 1
 833 3 l 1
 86 0 l 1
 233 220.917 l 1
 551 690 l 1
 526 731 l 1
 209 1212 l 1
 95 1377 l 1
 838 1377 l 1
 837 1178 l 1
 454 1178 l 1
 759 731 l 1
 784 699 l 1
 461 198 l 1
EndSplineSet
Validated: 1
EndChar

StartChar: product
Encoding: 273 8719 166
Width: 1051
VWidth: 1974
Flags: HMW
HStem: 3 39 1238 140G<396 677 396 396>
VStem: 124 270<3 1238 3 1377 3 1377> 678 270G<3 1377>
LayerCount: 2
Fore
SplineSet
677 1238 m 1
 396 1238 l 1
 396 3 l 1
 124 3 l 1
 124 1377 l 1
 948 1377 948 1377 948 1377 c 1
 948 3 l 1
 678 3 l 1
 677 1238 l 1
EndSplineSet
Validated: 1
EndChar

StartChar: pi
Encoding: 274 960 167
Width: 1051
VWidth: 1974
Flags: HMW
HStem: 3 39 846 160G<392 627 392 392>
VStem: 120 270<4 846 4 1006 4 1006> 627 286G
LayerCount: 2
Back
SplineSet
120 1006 m 1
 915 1006 l 1
 915 823 917 1013 913 3 c 1
 629 4 l 1
 627 846 l 1
 392 846 l 1
 392 4 l 1
 120 3 l 1
 120 1006 l 1
EndSplineSet
Fore
SplineSet
120 1006 m 1
 915 1006 l 1
 915 823 917 1013 913 3 c 1
 629 4 l 1
 627 846 l 1
 392 846 l 1
 392 4 l 1
 120 3 l 1
 120 1006 l 1
EndSplineSet
Validated: 33
EndChar

StartChar: integral
Encoding: 275 8747 168
Width: 1051
VWidth: 1974
Flags: HMW
HStem: -243 152 1225 156G
VStem: 318 273<26 56 56 1026 26 26 1026 1109> 763 178G<1027 1027>
LayerCount: 2
Fore
SplineSet
318 1026 m 2
 318 1315 477 1381 668 1381 c 0
 862 1381 965 1274 947 1079 c 2
 941 1027 l 1
 763 1027 l 1
 765 1098 l 2
 769 1167 731 1223 666 1223 c 0
 601 1223 591 1178 591 1109 c 2
 591 56 l 2
 591 -175 562 -231 318 -243 c 0
 295 -246 267 -241 240 -244 c 1
 240 -91 l 1
 305 -91 318 -43 318 26 c 2
 318 1026 l 2
EndSplineSet
Validated: 33
EndChar

StartChar: Omega
Encoding: 276 937 170
Width: 1051
VWidth: 1974
Flags: HMW
HStem: 0 39 1357 39G<347 445 445 603>
VStem: 474 99<0 373 0 373>
LayerCount: 2
Fore
SplineSet
474 373 m 1
 474 0 l 1
 109 0 l 1
 109 151 l 1
 336 151 l 1
 336 217 l 1
 192 263 89 398 89 558 c 2
 89 1041 l 2
 89 1239 250 1398 445 1398 c 2
 603 1398 l 2
 801 1398 959 1239 959 1041 c 2
 959 558 l 2
 959 398 856 263 712 217 c 1
 712 151 l 1
 947 151 l 1
 947 0 l 1
 573 0 l 1
 573 373 l 1
 638 373 688 413 688 482 c 2
 688 1117 l 2
 688 1186 634 1242 569 1242 c 2
 479 1242 l 2
 414 1242 362 1186 362 1117 c 2
 362 482 l 2
 362 413 409 373 474 373 c 1
EndSplineSet
Validated: 1
EndChar

StartChar: ae
Encoding: 230 230 171
Width: 1603
VWidth: 1974
Flags: HMW
HStem: 3 138<986 1098 1033 1098 1033 1115> 506 125G 850 156G<1033 1098>
VStem: 141 265<616 650 650 650> 631 318<240 247 247 274 630 714 714 725> 1184 282G<247 650 426 650 630 650 508 725 508 759>
LayerCount: 2
Fore
SplineSet
382 269 m 0
 382 200 424 151 503 151 c 0
 564 148 631 205 631 274 c 2
 629 490 l 1
 561 480 511 467 503 464 c 0
 454 450 382 424 382 356 c 0
 382 350 382 337 382 269 c 0
1471 426 m 1
 1471 358 l 2
 1471 160 1313 3 1115 3 c 2
 1032 3 l 2
 941 3 860 35 796 91 c 1
 739 38 630 -12 542 -12 c 0
 536 -12 444 -12 438 -12 c 0
 283 -12 110 79 116 266 c 2
 119 324 l 2
 123 434 222 576 503 599 c 2
 511 603 563 607 631 615 c 1
 631 714 l 2
 631 783 581 837 520 837 c 0
 459 837 408 783 405 714 c 2
 405 616 l 1
 141 616 l 1
 141 650 l 2
 144 848 281 1006 479 1006 c 2
 561 1006 l 2
 652 1006 732 972 796 916 c 1
 860 972 944 1006 1032 1006 c 2
 1115 1006 l 2
 1313 1006 1467 848 1467 650 c 2
 1467 508 l 1
 948 508 l 1
 948 247 l 2
 948 178 1001 140 1066 140 c 0
 1131 140 1184 178 1184 247 c 2
 1184 426 l 1
 1471 426 l 1
1184 630 m 1
 1184 725 l 2
 1184 794 1131 850 1066 850 c 0
 1001 850 948 794 948 725 c 2
 948 630 l 1
 1184 630 l 1
EndSplineSet
Validated: 33
EndChar

StartChar: oslash
Encoding: 248 248 172
Width: 999
VWidth: 1974
Flags: W
HStem: -8 21G<192 429.663> 3 39
VStem: 407 235<247 725>
LayerCount: 2
Fore
SplineSet
192 -8 m 25xa0
 944 1002 l 25
 1106 1002 l 25
 416 -8 l 25
 192 -8 l 25xa0
EndSplineSet
Refer: 94 111 N 1 0 0 1 32 0 2
Validated: 5
EndChar

StartChar: questiondown
Encoding: 191 191 173
Width: 953
VWidth: 1974
Flags: W
HStem: -12 156<385.602 580.607> 636 364<470 660> 1110 288<390.011 662>
VStem: 101 255<172.927 605.785> 390 270<776 1000 1110 1398> 610 272<174.217 419>
LayerCount: 2
Fore
SplineSet
390 776 m 1xf8
 390 1000 l 1
 660 1000 l 1
 660 636 l 1xf8
 529 636 l 1
 470 632 l 2
 405 628 352 577 352 508 c 2
 356 269 l 2
 356 200 408 140 473 144 c 2
 492 144 l 2
 557 148 610 200 610 269 c 2
 610 419 l 1
 882 419 l 1
 882 343 l 2xf4
 885 145 724 -12 526 -12 c 2
 439 -12 l 2
 244 -12 101 145 101 343 c 2
 101 451 l 2
 101 646 192 776 390 776 c 1xf8
627 1110 m 2
 425 1110 l 2
 405 1110 390 1127 390 1147 c 2
 390 1361 l 2
 390 1381 405 1398 425 1398 c 2
 627 1398 l 2
 647 1398 662 1381 662 1361 c 2
 662 1147 l 2
 662 1127 647 1110 627 1110 c 2
EndSplineSet
Validated: 33
EndChar

StartChar: exclamdown
Encoding: 161 161 174
Width: 529
VWidth: 1974
Flags: W
HStem: -12 21G<79 350> 1091 286<78 348>
VStem: 79 271<-12 1008 1091 1377>
LayerCount: 2
Fore
SplineSet
350 -12 m 1
 79 -12 l 1
 79 1008 l 1
 350 1008 l 1
 350 -12 l 1
313 1091 m 2
 113 1091 l 2
 93 1091 78 1106 78 1126 c 2
 78 1342 l 2
 78 1362 93 1377 113 1377 c 2
 313 1377 l 2
 333 1377 348 1362 348 1342 c 2
 348 1126 l 2
 348 1106 333 1091 313 1091 c 2
EndSplineSet
Validated: 1
EndChar

StartChar: logicalnot
Encoding: 172 172 175
Width: 953
VWidth: 1974
Flags: HMW
HStem: 714 138G<123 627 123 800>
VStem: 627 174G<332 714 714 714>
LayerCount: 2
Fore
SplineSet
627 332 m 1
 627 714 l 1
 123 714 l 1
 123 852 l 1
 800 852 l 1
 800 332 l 1
 627 332 l 1
EndSplineSet
Validated: 1
EndChar

StartChar: florin
Encoding: 277 402 176
Width: 1051
VWidth: 1974
Flags: HMW
HStem: 828 160G 1225 156G
VStem: 302 273<-354 826 988 1026 1026 1109> 750 178G<1027 1098>
LayerCount: 2
Fore
SplineSet
575 -354 m 1
 302 -354 l 1
 302 826 l 1
 227 826 l 1
 227 988 l 1
 302 988 l 1
 302 1026 l 2
 302 1315 461 1381 652 1381 c 0
 846 1381 940 1274 932 1079 c 2
 928 1027 l 1
 747 1027 l 1
 750 1098 l 2
 753 1167 716 1223 651 1223 c 0
 586 1223 575 1178 575 1109 c 2
 575 988 l 1
 735 988 l 1
 735 826 l 1
 575 826 l 1
 575 -354 l 1
EndSplineSet
Validated: 33
EndChar

StartChar: approxequal
Encoding: 278 8776 177
Width: 1051
VWidth: 1974
Flags: HMW
HStem: 335 200<380 380> 692 200G<380 380>
VStem: 214 585G<286 482 482 482 642 837 837 837>
LayerCount: 2
Fore
SplineSet
214 837 m 1
 240 851 273 889 382 892 c 0
 520 895 561 784 644 784 c 0
 693 784 750 812 799 842 c 1
 799 642 l 1
 760 619 730 585 639 585 c 0
 513 585 467 692 380 692 c 0
 293 692 286 680 214 638 c 1
 214 837 l 1
214 482 m 1
 240 496 273 533 382 536 c 0
 520 539 561 429 644 429 c 0
 693 429 750 456 799 486 c 1
 799 286 l 1
 760 263 730 229 639 229 c 0
 513 229 467 335 380 335 c 0
 293 335 286 324 214 282 c 1
 214 482 l 1
EndSplineSet
Validated: 33
EndChar

StartChar: guillemotleft
Encoding: 171 171 179
Width: 1130
VWidth: 1974
Flags: W
LayerCount: 2
Fore
SplineSet
32 551 m 1
 352 965 l 1
 625 965 l 1
 305 551 l 1
 625 103 l 1
 352 103 l 1
 32 551 l 1
495 551 m 1
 815 965 l 1
 1088 965 l 1
 766 551 l 1
 1088 103 l 1
 815 103 l 1
 495 551 l 1
EndSplineSet
Validated: 1
EndChar

StartChar: guillemotright
Encoding: 187 187 180
Width: 1130
VWidth: 1974
Flags: W
LayerCount: 2
Fore
SplineSet
1099 551 m 1
 780 103 l 1
 506 103 l 1
 826 551 l 1
 506 965 l 1
 780 965 l 1
 1099 551 l 1
636 551 m 1
 317 103 l 1
 44 103 l 1
 364 551 l 1
 44 965 l 1
 317 965 l 1
 636 551 l 1
EndSplineSet
Validated: 1
EndChar

StartChar: ellipsis
Encoding: 280 8230 181
Width: 1130
VWidth: 1974
Flags: HMW
HStem: -12 286G<100 310 109 310 109 465 465 666 820 1023>
VStem: 74 273<23 239 14 250> 430 273<23 239 14 250> 785 273<23 239 14 250>
LayerCount: 2
Fore
SplineSet
109 274 m 2
 310 274 l 2
 330 274 347 259 347 239 c 2
 347 23 l 2
 347 3 330 -12 310 -12 c 2
 109 -12 l 2
 89 -12 74 3 74 23 c 2
 74 239 l 2
 74 259 89 274 109 274 c 2
465 274 m 2
 666 274 l 2
 686 274 702 259 702 239 c 2
 702 23 l 2
 702 3 686 -12 666 -12 c 2
 465 -12 l 2
 445 -12 430 3 430 23 c 2
 430 239 l 2
 430 259 445 274 465 274 c 2
820 274 m 2
 1023 274 l 2
 1043 274 1058 259 1058 239 c 2
 1058 23 l 2
 1058 3 1043 -12 1023 -12 c 2
 820 -12 l 2
 800 -12 785 3 785 23 c 2
 785 239 l 2
 785 259 800 274 820 274 c 2
EndSplineSet
Validated: 1
EndChar

StartChar: Atilde
Encoding: 195 195 184
Width: 1027
VWidth: 1974
Flags: W
HStem: 3 39 303 138<399 626 399 659 367 626> 931 442<493 532 493 493> 1421 199<547.779 777.645> 1528 198<229.634 479.591>
LayerCount: 2
Fore
SplineSet
214 1673 m 1xe8
 240 1687 271 1723 380 1726 c 0xe8
 518 1729 562 1620 643 1620 c 0
 695 1620 750 1647 799 1677 c 1
 799 1478 l 1
 760 1455 727 1421 639 1421 c 0xf0
 513 1421 465 1528 378 1528 c 0
 291 1528 283 1516 214 1474 c 1
 214 1673 l 1xe8
EndSplineSet
Refer: 48 65 N 1 0 0 1 32 0 2
Validated: 33
EndChar

StartChar: OE
Encoding: 281 338 186
Width: 1337
VWidth: 1974
Flags: HMW
HStem: 3 174<391 780 391 780> 714 138G<391 776 391 776> 1238 140G<391 780 391 391>
VStem: 118 273<176 714 851 1238>
LayerCount: 2
Fore
SplineSet
1235 1238 m 1
 845 1238 l 1
 845 852 l 1
 1230 852 l 1
 1230 719 l 1
 845 719 l 1
 845 176 l 1
 1235 176 l 1
 1235 -6 l 1
 479 -6 l 2
 284 -6 123 141 123 339 c 2
 123 1041 l 2
 123 1239 284 1388 479 1388 c 2
 1236 1388 l 1
 1235 1238 l 1
602 156 m 1
 602 1242 l 1
 512 1242 l 2
 447 1242 396 1186 396 1117 c 2
 396 265 l 2
 396 196 448 156 512 156 c 2
 602 156 l 1
EndSplineSet
Validated: 1
EndChar

StartChar: oe
Encoding: 282 339 187
Width: 1734
VWidth: 1974
Flags: HMW
HStem: 3 426 506 125G 850 156G<482 547 1212 1277>
VStem: 124 273<358 650 650 725> 633 497<247 508 212 630 630 725 212 759> 1363 282G<247 650 426 650 630 650 508 725 508 759>
LayerCount: 2
Fore
SplineSet
633 247 m 2
 633 725 l 2
 633 794 579 850 514 850 c 0
 449 850 397 794 397 725 c 2
 397 247 l 2
 397 178 449 140 514 140 c 0
 579 140 633 178 633 247 c 2
1650 426 m 1
 1650 358 l 2
 1650 160 1492 3 1294 3 c 2
 1211 3 l 2
 1071 3 948 83 891 204 c 1
 835 82 712 3 564 3 c 2
 480 3 l 2
 285 3 124 160 124 358 c 2
 124 650 l 2
 124 848 285 1006 480 1006 c 2
 564 1006 l 2
 708 1006 830 919 887 797 c 1
 943 922 1067 1006 1211 1006 c 2
 1294 1006 l 2
 1492 1006 1647 848 1647 650 c 2
 1647 508 l 1
 1129 508 l 1
 1129 247 l 2
 1129 178 1180 140 1245 140 c 0
 1310 140 1363 178 1363 247 c 2
 1363 426 l 1
 1650 426 l 1
1363 630 m 1
 1363 725 l 2
 1363 794 1310 850 1245 850 c 0
 1180 850 1129 794 1129 725 c 2
 1129 630 l 1
 1363 630 l 1
EndSplineSet
Validated: 1
EndChar

StartChar: endash
Encoding: 283 8211 188
Width: 1051
VWidth: 1974
Flags: HMW
HStem: 714 138G<123 803 123 803>
LayerCount: 2
Fore
SplineSet
123 852 m 1
 803 852 l 1
 803 714 l 1
 123 714 l 1
 123 852 l 1
EndSplineSet
Validated: 1
EndChar

StartChar: emdash
Encoding: 284 8212 189
Width: 2039
VWidth: 1974
Flags: HMW
HStem: 714 138G<249 1640 249 1640>
LayerCount: 2
Fore
SplineSet
249 852 m 1
 1790 852 l 1
 1790 714 l 1
 249 714 l 1
 249 852 l 1
EndSplineSet
Validated: 1
EndChar

StartChar: quotedblleft
Encoding: 285 8220 190
Width: 870
VWidth: 1974
Flags: HMW
HStem: 1083 286<153 364 287 364 287 364 287 500 625 702>
VStem: 127 273<1118 1331 1331 1334 1109 1334> 465 273G<1118 1331 1331 1334 1109 1334>
LayerCount: 2
Fore
SplineSet
208 1538 m 1
 352 1538 l 1
 287 1369 l 1
 364 1369 l 2
 384 1369 400 1354 400 1334 c 2
 400 1118 l 2
 400 1098 384 1083 364 1083 c 2
 162 1083 l 2
 142 1083 127 1098 127 1118 c 2
 127 1331 l 1
 127 1334 l 1
 208 1538 l 1
546 1538 m 1
 690 1538 l 1
 625 1369 l 1
 702 1369 l 2
 722 1369 738 1354 738 1334 c 2
 738 1118 l 2
 738 1098 722 1083 702 1083 c 2
 500 1083 l 2
 480 1083 465 1098 465 1118 c 2
 465 1331 l 1
 465 1334 l 1
 546 1538 l 1
EndSplineSet
Validated: 1
EndChar

StartChar: quotedblright
Encoding: 286 8221 191
Width: 870
VWidth: 1974
Flags: HMW
HStem: 1232 286G<153 364 162 237 162 500 500 575>
VStem: 127 273<1269 1270 1270 1485 1269 1494> 465 273G<1269 1270 1270 1485 1269 1494>
LayerCount: 2
Fore
SplineSet
655 1065 m 1
 510 1065 l 1
 575 1232 l 1
 500 1232 l 2
 480 1232 465 1249 465 1269 c 2
 465 1485 l 2
 465 1505 480 1520 500 1520 c 2
 702 1520 l 2
 722 1520 738 1505 738 1485 c 2
 738 1270 l 1
 738 1269 l 1
 655 1065 l 1
317 1065 m 1
 172 1065 l 1
 237 1232 l 1
 162 1232 l 2
 142 1232 127 1249 127 1269 c 2
 127 1485 l 2
 127 1505 142 1520 162 1520 c 2
 364 1520 l 2
 384 1520 400 1505 400 1485 c 2
 400 1270 l 1
 400 1269 l 1
 317 1065 l 1
EndSplineSet
Validated: 1
EndChar

StartChar: quoteleft
Encoding: 287 8216 192
Width: 529
VWidth: 1974
Flags: HMW
HStem: 1083 286<153 364 287 364 287 364>
VStem: 127 273G<1118 1331 1331 1334 1109 1334>
LayerCount: 2
Fore
SplineSet
208 1538 m 1
 352 1538 l 1
 287 1369 l 1
 364 1369 l 2
 384 1369 400 1354 400 1334 c 2
 400 1118 l 2
 400 1098 384 1083 364 1083 c 2
 162 1083 l 2
 142 1083 127 1098 127 1118 c 2
 127 1331 l 1
 127 1334 l 1
 208 1538 l 1
EndSplineSet
Validated: 1
EndChar

StartChar: quoteright
Encoding: 288 8217 193
Width: 529
VWidth: 1974
Flags: HMW
HStem: 1232 286G<153 364 162 237>
VStem: 127 273G<1269 1270 1270 1485 1269 1494>
LayerCount: 2
Fore
SplineSet
317 1065 m 1
 172 1065 l 1
 237 1232 l 1
 162 1232 l 2
 142 1232 127 1249 127 1269 c 2
 127 1485 l 2
 127 1505 142 1520 162 1520 c 2
 364 1520 l 2
 384 1520 400 1505 400 1485 c 2
 400 1270 l 1
 400 1269 l 1
 317 1065 l 1
EndSplineSet
Validated: 1
EndChar

StartChar: divide
Encoding: 247 247 194
Width: 1051
VWidth: 1974
Flags: HMW
HStem: 429 160<496 578 506 578> 711 140<204 878 204 878> 980 160G<496 578 506 578>
VStem: 470 142G<464 554 455 563 1015 1105>
LayerCount: 2
Fore
SplineSet
184 852 m 1
 858 852 l 1
 858 711 l 1
 184 711 l 1
 184 852 l 1
486 1140 m 2
 558 1140 l 2
 578 1140 593 1125 593 1105 c 2
 593 1015 l 2
 593 995 578 980 558 980 c 2
 486 980 l 2
 466 980 450 995 450 1015 c 2
 450 1105 l 2
 450 1125 466 1140 486 1140 c 2
486 589 m 2
 558 589 l 2
 578 589 593 574 593 554 c 2
 593 464 l 2
 593 444 578 429 558 429 c 2
 486 429 l 2
 466 429 450 444 450 464 c 2
 450 554 l 2
 450 574 466 589 486 589 c 2
EndSplineSet
Validated: 1
EndChar

StartChar: lozenge
Encoding: 289 9674 195
Width: 1051
VWidth: 1974
Flags: W
LayerCount: 2
Fore
SplineSet
876 689 m 1
 499 312 l 1
 123 689 l 1
 499 1065 l 1
 876 689 l 1
670 692 m 1
 503 859 l 1
 335 692 l 1
 503 524 l 1
 670 692 l 1
EndSplineSet
Validated: 1
EndChar

StartChar: Ydieresis
Encoding: 290 376 197
Width: 1037
VWidth: 1974
Flags: W
HStem: 3 39 1338 39<68 341 341 341 763 1017 1017 1017> 1429 269<394 577 767 951>
VStem: 394 183<1429 1698> 406 273<3 645 3 645> 767 184<1429 1698>
LayerCount: 2
Fore
SplineSet
429 1698 m 2xf4
 542 1698 l 2
 562 1698 577 1681 577 1661 c 2
 577 1464 l 2
 577 1444 562 1429 542 1429 c 2
 429 1429 l 2
 409 1429 394 1444 394 1464 c 2
 394 1661 l 2
 394 1681 409 1698 429 1698 c 2xf4
803 1698 m 2
 915 1698 l 2
 935 1698 951 1681 951 1661 c 2
 951 1464 l 2
 951 1444 935 1429 915 1429 c 2
 803 1429 l 2
 783 1429 767 1444 767 1464 c 2
 767 1661 l 2
 767 1681 783 1698 803 1698 c 2
EndSplineSet
Refer: 72 89 S 1 0 0 1 32 0 2
Validated: 1
EndChar

StartChar: fraction
Encoding: 291 8260 198
Width: 1051
VWidth: 1974
Flags: W
LayerCount: 2
Fore
SplineSet
986 1128 m 1
 347 91 l 1
 127 251 l 1
 766 1288 l 1
 986 1128 l 1
EndSplineSet
Validated: 1
EndChar

StartChar: currency
Encoding: 164 164 199
Width: 1051
VWidth: 1974
Flags: HMW
HStem: 3 174<480 868 480 868> 500 138<89 263 89 263 480 868> 802 138G<89 261 89 261 480 868> 1130 140G<480 874 480 480>
VStem: 261 220<941 1130>
LayerCount: 2
Fore
SplineSet
89 881 m 1
 261 881 l 1
 261 1210 l 1
 874 1210 l 1
 874 1070 l 1
 480 1070 l 1
 480 881 l 1
 868 881 l 1
 868 742 l 1
 480 742 l 1
 480 578 l 1
 868 578 l 1
 868 440 l 1
 480 440 l 1
 480 176 l 1
 868 176 l 1
 868 3 l 1
 263 3 l 1
 263 440 l 1
 89 440 l 1
 89 578 l 1
 263 578 l 1
 261 742 l 1
 89 742 l 1
 89 881 l 1
EndSplineSet
Validated: 1
EndChar

StartChar: guilsinglleft
Encoding: 292 8249 200
Width: 1051
VWidth: 1974
Flags: W
VStem: 166 593
LayerCount: 2
Fore
SplineSet
166 551 m 1
 487 965 l 1
 759 965 l 1
 439 551 l 1
 759 103 l 1
 487 103 l 1
 166 551 l 1
EndSplineSet
Validated: 1
EndChar

StartChar: guilsinglright
Encoding: 293 8250 201
Width: 1051
VWidth: 1974
Flags: W
VStem: 245 593
LayerCount: 2
Fore
SplineSet
838 551 m 1
 518 103 l 1
 245 103 l 1
 565 551 l 1
 245 965 l 1
 518 965 l 1
 838 551 l 1
EndSplineSet
Validated: 1
EndChar

StartChar: fl
Encoding: 295 64258 203
Width: 1083
VWidth: 1974
Flags: HMW
HStem: 3 39 828 160G 1225 156G
VStem: 161 273<3 826 3 826 988 1026 1026 1109> 690 273G<3 1083 1083 1132 1316 1377 3 1377>
LayerCount: 2
Fore
SplineSet
690 1377 m 1
 963 1377 l 1
 963 3 l 1
 690 3 l 1
 690 1083 l 2
 690 1182 644 1223 561 1223 c 0
 496 1223 434 1178 434 1109 c 2
 434 988 l 1
 594 988 l 1
 594 826 l 1
 434 826 l 1
 434 3 l 1
 161 3 l 1
 161 826 l 1
 85 826 l 1
 85 988 l 1
 161 988 l 1
 161 1026 l 2
 161 1315 328 1381 519 1381 c 0
 608 1381 674 1332 690 1286 c 1
 690 1377 l 1
EndSplineSet
Validated: 1
EndChar

StartChar: daggerdbl
Encoding: 296 8225 204
Width: 557
VWidth: 1974
Flags: HMW
HStem: 1091 73G 1269 73G
VStem: 157 247<1093 1164 1093 1164 1270 1342 1093 1342>
LayerCount: 2
Fore
SplineSet
157 1164 m 1
 237 1164 l 1
 237 1270 l 1
 157 1270 l 1
 157 1342 l 1
 237 1342 l 1
 237 1448 l 1
 317 1448 l 1
 317 1342 l 1
 404 1342 l 1
 404 1270 l 1
 317 1270 l 1
 317 1164 l 1
 404 1164 l 1
 404 1093 l 1
 317 1093 l 1
 317 707 l 1
 237 707 l 1
 237 1093 l 1
 157 1093 l 1
 157 1164 l 1
EndSplineSet
Validated: 1
EndChar

StartChar: periodcentered
Encoding: 183 183 205
Width: 557
VWidth: 1974
Flags: HMW
HStem: 699 286G<176 388 187 388>
VStem: 150 273G<734 950 725 961>
LayerCount: 2
Fore
SplineSet
187 985 m 2
 388 985 l 2
 408 985 423 970 423 950 c 2
 423 734 l 2
 423 714 408 699 388 699 c 2
 187 699 l 2
 167 699 150 714 150 734 c 2
 150 950 l 2
 150 970 167 985 187 985 c 2
EndSplineSet
Validated: 1
EndChar

StartChar: quotesinglbase
Encoding: 297 8218 206
Width: 557
VWidth: 1974
Flags: HMW
HStem: -12 286G<153 364 162 237>
VStem: 127 273G<23 26 26 239 23 250>
LayerCount: 2
Fore
SplineSet
317 -179 m 1
 172 -179 l 1
 237 -12 l 1
 162 -12 l 2
 142 -12 127 3 127 23 c 2
 127 239 l 2
 127 259 142 274 162 274 c 2
 364 274 l 2
 384 274 400 259 400 239 c 2
 400 26 l 1
 400 23 l 1
 317 -179 l 1
EndSplineSet
Validated: 1
EndChar

StartChar: quotedblbase
Encoding: 298 8222 207
Width: 854
VWidth: 1974
Flags: HMW
HStem: -12 286G<153 364 162 237 162 500 500 575>
VStem: 127 273<23 26 26 239 23 250> 465 273G<23 26 26 239 23 250>
LayerCount: 2
Fore
SplineSet
655 -179 m 1
 510 -179 l 1
 575 -12 l 1
 500 -12 l 2
 480 -12 465 3 465 23 c 2
 465 239 l 2
 465 259 480 274 500 274 c 2
 702 274 l 2
 722 274 738 259 738 239 c 2
 738 26 l 1
 738 23 l 1
 655 -179 l 1
317 -179 m 1
 172 -179 l 1
 237 -12 l 1
 162 -12 l 2
 142 -12 127 3 127 23 c 2
 127 239 l 2
 127 259 142 274 162 274 c 2
 364 274 l 2
 384 274 400 259 400 239 c 2
 400 26 l 1
 400 23 l 1
 317 -179 l 1
EndSplineSet
Validated: 1
EndChar

StartChar: perthousand
Encoding: 299 8240 208
Width: 2039
VWidth: 1974
Flags: HMW
HStem: 95 320 1022 320G
VStem: 354 118 985 118G 1248 156G<176 186 186 330 330 332 136 380> 1537 118G
LayerCount: 2
Fore
SplineSet
1122 1448 m 1
 588 -52 l 1
 316 -52 l 1
 849 1448 l 1
 1122 1448 l 1
470 1076 m 2
 470 1280 l 2
 470 1314 444 1342 413 1342 c 0
 379 1342 354 1314 354 1280 c 2
 354 1076 l 2
 354 1041 379 1023 413 1023 c 0
 444 1023 470 1041 470 1076 c 2
438 1439 m 2
 537 1439 614 1357 614 1258 c 2
 614 1105 l 2
 614 1009 537 936 438 936 c 2
 396 936 l 2
 297 936 218 1015 218 1114 c 2
 218 1261 l 2
 218 1360 297 1439 396 1439 c 2
 438 1439 l 2
1103 148 m 2
 1103 352 l 2
 1103 386 1077 413 1046 413 c 0
 1012 413 986 386 986 352 c 2
 986 148 l 2
 986 113 1012 95 1046 95 c 0
 1077 95 1103 113 1103 148 c 2
1069 510 m 2
 1168 510 1248 429 1248 330 c 2
 1248 176 l 2
 1248 80 1168 8 1069 8 c 2
 1028 8 l 2
 929 8 850 87 850 186 c 2
 850 332 l 2
 850 431 929 510 1028 510 c 2
 1069 510 l 2
1656 148 m 2
 1656 352 l 2
 1656 386 1629 413 1598 413 c 0
 1564 413 1540 386 1540 352 c 2
 1540 148 l 2
 1540 113 1564 95 1598 95 c 0
 1629 95 1656 113 1656 148 c 2
1623 510 m 2
 1722 510 1800 429 1800 330 c 2
 1800 176 l 2
 1800 80 1722 8 1623 8 c 2
 1582 8 l 2
 1483 8 1404 87 1404 186 c 2
 1404 332 l 2
 1404 431 1483 510 1582 510 c 2
 1623 510 l 2
EndSplineSet
Validated: 1
EndChar

StartChar: dotlessi
Encoding: 300 305 224
Width: 513
VWidth: 1974
Flags: HMW
HStem: 3 39
VStem: 120 273<3 985 3 985>
LayerCount: 2
Fore
SplineSet
120 985 m 1
 393 985 l 1
 393 3 l 1
 120 3 l 1
 120 985 l 1
EndSplineSet
Validated: 1
EndChar

StartChar: circumflex
Encoding: 301 710 225
Width: 854
VWidth: 1974
Flags: W
HStem: 1089 219<281 322>
VStem: 185 460
LayerCount: 2
Fore
SplineSet
322 1308 m 1
 499 1308 l 1
 645 1089 l 1
 458 1089 l 1
 392 1188 l 1
 322 1089 l 1
 185 1089 l 1
 322 1308 l 1
322 1308 m 1
 499 1308 l 1
 645 1089 l 1
 458 1089 l 1
 392 1188 l 1
 322 1089 l 1
 185 1089 l 1
 322 1308 l 1
EndSplineSet
Validated: 5
EndChar

StartChar: tilde
Encoding: 302 732 226
Width: 1051
VWidth: 1974
Flags: W
HStem: 585 199<548.26 775.634> 692 200<229.818 480.777>
VStem: 214 585
LayerCount: 2
Fore
SplineSet
214 837 m 1x60
 240 851 273 889 382 892 c 0x60
 520 895 561 784 644 784 c 0
 693 784 750 812 799 842 c 1
 799 642 l 1
 760 619 730 585 639 585 c 0xa0
 513 585 467 692 380 692 c 0
 293 692 286 680 214 638 c 1
 214 837 l 1x60
EndSplineSet
Validated: 33
EndChar

StartChar: macron
Encoding: 175 175 227
Width: 1051
VWidth: 1974
Flags: HMW
HStem: 1069 138G<202 882 202 882>
LayerCount: 2
Fore
SplineSet
202 1208 m 1
 882 1208 l 1
 882 1069 l 1
 202 1069 l 1
 202 1208 l 1
EndSplineSet
Validated: 1
EndChar

StartChar: breve
Encoding: 303 728 228
Width: 557
VWidth: 1974
Flags: HMW
VStem: 196 179G<1148 1150 1150 1208 1208 1208>
LayerCount: 2
Fore
SplineSet
75 1182 m 2
 75 1208 l 1
 196 1208 l 1
 196 1148 l 2
 196 1118 221 1102 248 1102 c 2
 324 1102 l 2
 354 1102 375 1119 375 1150 c 2
 375 1209 l 1
 495 1209 l 1
 495 1182 l 2
 495 1095 426 1026 339 1026 c 2
 232 1026 l 2
 148 1026 75 1095 75 1182 c 2
EndSplineSet
Validated: 1
EndChar

StartChar: dotaccent
Encoding: 304 729 229
Width: 557
VWidth: 1974
Flags: HMW
HStem: 1083 229<172 343 180 343>
VStem: 153 217G<1113 1284 1105 1292>
LayerCount: 2
Fore
SplineSet
180 1312 m 2
 343 1312 l 2
 359 1312 370 1300 370 1284 c 2
 370 1113 l 2
 370 1097 359 1083 343 1083 c 2
 180 1083 l 2
 164 1083 153 1097 153 1113 c 2
 153 1284 l 2
 153 1300 164 1312 180 1312 c 2
EndSplineSet
Validated: 1
EndChar

StartChar: ring
Encoding: 305 730 230
Width: 1051
VWidth: 1974
Flags: HMW
HStem: 927 77 1179 72G<409 458>
VStem: 272 72<1066 1115 1066 1134> 522 77G<1066 1115>
LayerCount: 2
Fore
SplineSet
599 1089 m 0
 599 998 526 927 435 927 c 0
 347 927 272 998 272 1089 c 0
 272 1177 347 1251 435 1251 c 0
 526 1251 599 1177 599 1089 c 0
522 1091 m 0
 522 1140 483 1179 434 1179 c 0
 385 1179 344 1140 344 1091 c 0
 344 1042 385 1002 434 1002 c 0
 483 1002 522 1042 522 1091 c 0
EndSplineSet
Validated: 1
EndChar

StartChar: cedilla
Encoding: 184 184 231
Width: 557
VWidth: 1974
Flags: HMW
HStem: -506 81<306 309 272 354> -155 81G<293 309>
VStem: 93 122<-95 60> 347 130G<-384 -372>
LayerCount: 2
Fore
SplineSet
235.1 -113.7 m 1
 250.5 -103.9 266.464 -98.2998 282.7 -98.2998 c 2
 310.9 -98.2998 l 2
 441 -98.2998 449 -150.8 449 -217.3 c 2
 449 -241.7 l 2
 449 -308.2 418 -362 298.8 -362 c 2
 263.8 -362 l 2
 120 -362 84.0996 -318.2 84.0996 -251.7 c 2
 84.0996 -229 l 1
 235.1 -229 l 1
 235.1 -247.6 l 2
 235.101 -271.4 253.3 -282.6 275 -284.7 c 2
 289.7 -284.7 l 2
 311.4 -284.7 327.128 -261.397 327.5 -237.6 c 2
 328.2 -192.8 l 2
 328.457 -169.001 311.4 -155.7 289.7 -155.7 c 2
 275 -156.4 l 2
 253.3 -156.4 234.4 -169 232.3 -180.2 c 1
 89.7002 -180.2 l 1
 89.7002 34.7998 l 1
 235.1 34.7998 l 1
 235.1 -113.7 l 1
EndSplineSet
Validated: 1
EndChar

StartChar: hungarumlaut
Encoding: 306 733 232
Width: 1051
VWidth: 1974
Flags: W
HStem: 1048 214<335 343 690 698>
VStem: 184 664
LayerCount: 2
Fore
SplineSet
848 1262 m 1
 698 1048 l 1
 540 1048 l 1
 690 1262 l 1
 848 1262 l 1
492 1262 m 1
 343 1048 l 1
 184 1048 l 1
 335 1262 l 1
 492 1262 l 1
EndSplineSet
Validated: 1
EndChar

StartChar: caron
Encoding: 307 711 233
Width: 1051
VWidth: 1974
Flags: W
HStem: 1089 219<392 413 569 609>
VStem: 236 510
LayerCount: 2
Fore
SplineSet
245 1339 m 1,0,-1
392 1089 m 1,1,-1
 236 1308 l 1,2,-1
 413 1308 l 1,3,-1
 502 1159 l 1,4,-1
 569 1308 l 1,5,-1
 746 1308 l 1,6,-1
 609 1089 l 1,7,-1
 392 1089 l 1,1,-1
EndSplineSet
Validated: 1
EndChar

